<?xml version="1.0" standalone="no"?>
<!DOCTYPE svg PUBLIC "-//W3C//DTD SVG 20010904//EN"
 "http://www.w3.org/TR/2001/REC-SVG-20010904/DTD/svg10.dtd">
<svg version="1.0" xmlns="http://www.w3.org/2000/svg"
 width="512.000000pt" height="512.000000pt" viewBox="0 0 512.000000 512.000000"
 preserveAspectRatio="xMidYMid meet">
<metadata>
Created by potrace 1.11, written by Peter Selinger 2001-2013
</metadata>
<g transform="translate(0.000000,512.000000) scale(0.100000,-0.100000)"
fill="#000000" stroke="none">
<path d="M2358 5087 c-31 -7 -55 -10 -52 -5 18 29 -463 -41 -503 -73 -7 -6
-13 -9 -13 -6 0 9 -154 -46 -273 -96 -456 -196 -896 -584 -1153 -1018 -197
-333 -303 -638 -354 -1024 -17 -127 -8 -601 14 -713 49 -254 100 -421 188
-622 74 -168 110 -232 214 -391 316 -478 799 -840 1359 -1019 105 -33 275 -73
360 -84 28 -4 66 -9 87 -12 29 -4 37 -2 41 13 4 16 5 16 6 1 0 -10 8 -18 16
-18 8 0 15 8 16 18 0 13 2 12 9 -5 5 -13 12 -23 16 -23 3 0 4 7 1 15 -4 8 -2
17 4 20 5 4 12 0 15 -9 3 -8 13 -17 21 -20 13 -5 14 -1 10 23 -4 17 -2 33 3
36 6 3 10 0 10 -7 0 -10 2 -10 9 0 6 11 14 8 35 -13 14 -14 26 -21 26 -16 0 5
-4 13 -10 16 -5 3 -10 13 -10 22 0 12 5 11 20 -7 20 -23 24 -21 21 12 -1 10 3
18 8 18 6 0 11 -6 11 -12 0 -8 8 -4 17 7 10 13 14 15 10 4 -3 -9 -1 -22 4 -30
6 -10 9 -8 9 10 0 24 0 24 15 5 8 -10 15 -14 15 -9 0 6 5 3 10 -5 8 -11 9 -7
4 15 -5 25 -4 28 7 18 20 -19 31 -16 24 7 -8 24 -2 25 29 5 21 -14 24 -14 29
-1 4 10 13 13 23 9 13 -5 16 -3 11 10 -7 18 8 24 18 7 9 -15 27 0 21 17 -4 11
-2 13 9 9 17 -6 21 9 5 19 -6 4 -8 11 -4 16 9 16 24 0 24 -27 0 -13 5 -24 11
-24 6 0 8 7 5 16 -3 8 -2 13 3 9 5 -3 12 1 15 7 3 9 10 7 21 -7 17 -20 17 -20
10 4 -5 16 -4 21 4 17 24 -15 9 14 -28 55 -22 23 -38 46 -35 51 7 11 24 0 24
-15 0 -7 14 -20 30 -29 19 -11 28 -22 24 -31 -3 -8 0 -18 5 -22 6 -3 9 -10 6
-15 -3 -5 -1 -11 5 -15 11 -7 13 5 10 43 -1 12 4 22 10 22 7 0 10 -6 7 -14 -3
-7 1 -23 9 -35 8 -11 12 -21 9 -21 -4 0 5 -14 19 -31 14 -17 26 -36 26 -42 0
-6 -13 4 -29 23 l-29 35 3 -27 c2 -15 6 -32 11 -39 4 -8 3 -9 -4 -5 -7 4 -12
2 -12 -4 0 -7 9 -14 20 -17 11 -3 20 -9 20 -14 0 -10 43 -12 53 -3 9 9 -4 35
-14 28 -5 -3 -9 0 -9 5 0 15 23 14 39 -1 11 -11 13 -10 8 5 -4 12 -3 16 4 11
6 -3 8 -15 6 -26 -4 -14 -2 -18 10 -14 8 3 17 6 19 6 2 0 4 9 4 20 0 24 9 26
25 3 11 -15 18 -15 71 -4 77 17 310 95 394 132 467 208 842 520 1116 931 41
61 74 119 74 130 0 10 4 17 8 14 5 -3 34 44 65 105 l56 110 -22 33 c-15 22
-29 32 -44 30 -12 -1 -24 5 -27 13 -3 8 -10 12 -15 9 -5 -3 -12 1 -15 10 -4 9
-9 15 -11 12 -3 -2 5 -24 16 -48 20 -41 22 -43 35 -25 10 14 14 15 14 4 0 -11
2 -11 8 -1 6 9 12 5 20 -15 10 -23 10 -25 0 -13 -30 35 -48 18 -26 -23 11 -21
10 -21 -7 -7 -17 14 -18 13 -12 -20 5 -32 4 -31 -15 12 -11 27 -25 48 -29 48
-5 0 0 -18 11 -40 11 -21 20 -47 19 -57 0 -14 -2 -13 -10 5 -5 13 -14 20 -19
17 -8 -5 -7 -12 2 -23 11 -13 11 -14 -1 -11 -8 3 -22 19 -31 37 l-17 32 -7
-31 c-3 -17 -6 -47 -6 -67 l0 -35 -19 21 c-10 12 -23 22 -28 22 -6 0 -18 10
-26 22 -11 17 -16 19 -16 8 -1 -9 8 -22 19 -30 14 -10 20 -26 20 -52 0 -43
-17 -59 -37 -33 -7 11 -20 20 -29 21 -12 2 -14 0 -5 -9 13 -13 15 -31 3 -23
-5 3 -8 -3 -8 -12 0 -46 -5 -75 -10 -69 -4 4 -7 36 -7 72 0 36 -5 69 -10 72
-6 4 -8 0 -4 -10 3 -9 -1 -23 -9 -31 -13 -14 -13 -18 3 -42 l17 -27 -23 13
c-23 12 -23 11 -17 -14 16 -69 18 -81 7 -66 -6 8 -11 24 -11 35 0 11 -5 27
-10 35 -6 10 -8 3 -4 -25 l5 -40 -15 30 -15 30 4 -50 c4 -39 2 -46 -6 -32 -6
10 -8 25 -5 32 3 8 -2 22 -11 31 -14 13 -14 19 -4 36 8 14 9 24 3 30 -6 6 -8
16 -6 23 3 7 1 16 -4 19 -13 8 -14 -91 -1 -116 8 -14 8 -18 0 -14 -7 5 -11 -6
-12 -31 l-2 -38 -8 35 -8 35 2 -42 c2 -43 -10 -47 -16 -6 -6 43 -20 38 -14 -5
7 -54 -11 -52 -29 4 -13 39 -13 39 -9 -26 2 -41 1 -52 -3 -30 -6 28 -9 31 -15
17 -4 -10 -8 -42 -8 -70 l-1 -52 -9 55 c-13 76 -19 90 -29 65 l-9 -20 -1 20
-1 20 -10 -20 c-7 -16 -9 -14 -6 12 2 18 0 30 -5 27 -11 -7 -10 -52 2 -59 6
-3 10 -23 9 -43 l0 -37 -17 49 -16 50 -8 -32 c-9 -35 -17 -41 -17 -15 0 10 -1
41 -1 68 0 36 -3 46 -10 35 -6 -8 -8 -35 -5 -60 2 -25 2 -36 -1 -25 -10 34
-24 41 -24 13 0 -30 -20 -49 -21 -21 0 11 -3 13 -6 5 -3 -7 0 -18 5 -25 6 -7
7 -19 3 -26 -6 -9 -10 -5 -15 13 -6 25 -26 28 -26 5 0 -6 5 -7 10 -4 6 3 10 0
10 -7 0 -7 3 -24 7 -37 6 -22 5 -23 -9 -11 -9 8 -13 22 -11 30 4 13 4 13 -5 0
-8 -10 -8 -18 0 -28 8 -9 8 -16 -2 -25 -10 -9 -11 -9 -6 1 4 6 3 12 -2 12 -5
0 -12 9 -15 21 -4 13 -10 18 -18 13 -7 -4 -10 -3 -5 4 3 6 2 13 -4 17 -6 4
-10 -5 -10 -21 0 -22 -2 -25 -15 -14 -8 7 -15 8 -15 2 0 -5 9 -16 19 -23 11
-8 22 -24 26 -37 l6 -22 -38 22 -38 22 19 -22 c14 -16 16 -22 5 -22 -19 0 -35
12 -42 30 -4 11 -6 9 -6 -6 -1 -12 9 -26 23 -34 19 -10 22 -15 13 -25 -8 -9
-18 -10 -29 -4 -9 5 -29 14 -45 19 -26 9 -27 9 -9 -5 11 -8 23 -15 26 -15 4 0
7 -7 7 -15 0 -8 -4 -15 -9 -15 -5 0 -6 -4 -3 -10 9 -14 3 -13 -50 10 -26 11
-49 20 -51 20 -3 0 10 -17 30 -37 40 -43 37 -68 -3 -29 -15 14 -34 26 -42 26
-10 -1 -8 -5 6 -16 24 -18 26 -45 5 -61 -13 -10 -12 -15 10 -39 14 -16 17 -22
8 -15 -10 7 -18 10 -18 6 0 -4 -7 -2 -15 5 -8 7 -13 16 -10 20 3 4 -2 13 -9
20 -12 9 -17 7 -26 -10 -6 -11 -15 -18 -21 -15 -17 11 -10 -7 17 -42 14 -18
21 -33 17 -33 -5 0 -14 9 -20 20 -15 24 -50 43 -57 32 -3 -5 4 -26 15 -46 11
-21 18 -41 15 -44 -3 -3 -6 1 -6 9 0 11 -2 11 -10 -1 -10 -15 -11 -14 -15 28
-1 13 -8 29 -15 35 -10 9 -11 9 -6 -1 9 -15 17 -72 10 -72 -2 0 -9 10 -14 23
-7 19 -9 16 -10 -18 0 -30 -3 -36 -10 -25 -7 11 -10 11 -10 2 0 -7 -4 -10 -10
-7 -16 10 -12 -11 5 -25 8 -7 15 -18 14 -24 0 -7 -2 -6 -6 2 -7 18 -23 15 -24
-5 -1 -10 -7 0 -14 22 -13 39 -14 39 -15 10 -1 -26 -3 -27 -10 -10 -7 18 -9
17 -22 -13 -8 -18 -18 -29 -23 -25 -4 5 -5 0 -2 -10 4 -10 3 -16 -2 -12 -5 3
-12 -1 -14 -7 -3 -7 -4 3 -1 22 l4 35 -14 -30 c-14 -28 -15 -29 -16 -6 l0 24
-17 -21 c-10 -11 -23 -29 -29 -39 -10 -16 -13 -16 -29 -3 -17 14 -18 13 -12
-2 4 -13 2 -15 -10 -11 -11 4 -14 2 -9 -5 4 -7 2 -12 -4 -12 -6 0 -8 -4 -5
-10 3 -5 1 -10 -5 -10 -6 0 -8 -5 -5 -10 4 -6 3 -10 -2 -9 -4 1 -20 -1 -34 -5
-14 -4 -33 -8 -42 -10 -9 -1 -19 -5 -23 -8 -3 -4 -17 -3 -30 2 -19 8 -22 6
-17 -7 5 -13 2 -15 -11 -10 -9 4 -25 1 -36 -5 -14 -9 -22 -9 -33 0 -8 7 -21
10 -30 6 -8 -3 -18 -1 -22 5 -12 20 -26 12 -15 -8 15 -29 12 -33 -11 -20 -12
6 -34 9 -50 7 -15 -3 -26 -1 -23 3 2 4 -1 11 -7 15 -7 4 -9 3 -6 -2 3 -6 2
-16 -4 -24 -6 -10 -9 -11 -9 -2 0 6 -4 12 -9 12 -5 0 -7 -9 -4 -20 3 -11 0
-20 -6 -20 -6 0 -11 6 -11 13 0 8 -3 8 -9 -2 -5 -8 -8 -23 -6 -34 4 -15 2 -17
-10 -7 -18 15 -20 24 -3 14 7 -4 8 -3 4 5 -4 6 -12 9 -17 6 -5 -4 -15 -3 -21
2 -32 19 -37 9 -13 -23 14 -19 22 -34 18 -34 -15 0 -79 73 -93 107 -13 28 -15
29 -26 15 -10 -14 -17 -15 -43 -5 -19 7 -33 7 -37 2 -3 -5 -9 -7 -14 -4 -5 3
-24 -1 -42 -8 -18 -8 -39 -12 -45 -10 -7 3 -13 0 -13 -5 0 -5 -12 -7 -26 -4
-21 4 -25 2 -19 -9 7 -12 6 -12 -7 -1 -13 10 -17 10 -22 -4 -5 -14 -9 -14 -23
-3 -14 12 -16 12 -8 -1 6 -12 5 -13 -6 -3 -17 17 -43 17 -33 0 6 -9 4 -9 -7
-1 -8 6 -21 10 -29 9 -69 -12 -80 -12 -80 -2 0 7 -5 6 -10 -3 -5 -8 -10 -10
-10 -4 0 18 -60 12 -60 -6 0 -10 -3 -11 -8 -4 -10 14 -92 15 -92 0 0 -6 -5 -4
-10 4 -7 11 -10 11 -10 2 0 -9 -5 -10 -17 -4 -11 7 -21 5 -31 -4 -29 -30 -44
23 -15 54 22 23 14 36 -9 16 l-23 -19 19 22 c10 13 23 20 27 17 5 -3 6 2 3 10
-3 8 -12 12 -20 9 -8 -3 -14 0 -14 6 0 6 -11 11 -24 11 -13 0 -27 7 -30 16 -5
13 -9 14 -20 5 -10 -8 -16 -9 -21 -1 -3 6 -10 8 -15 5 -16 -10 -39 6 -33 23 5
14 3 14 -15 -2 -22 -19 -22 -19 -28 13 -6 30 -8 31 -25 15 -24 -21 -24 -12 -2
24 l17 27 -26 -24 -27 -23 6 23 c6 21 4 21 -23 -7 -16 -17 -23 -22 -16 -13 8
10 11 23 6 30 -4 7 -3 10 3 6 5 -3 10 -1 10 6 0 7 -8 13 -18 13 -10 0 -15 -4
-13 -8 3 -4 0 -8 -6 -8 -6 0 -9 -4 -6 -8 2 -4 1 -14 -5 -22 -7 -13 -9 -13 -9
-1 0 11 -5 10 -20 -4 -11 -10 -20 -14 -20 -8 0 5 9 18 21 29 11 10 25 27 31
38 8 14 2 13 -25 -8 -26 -20 -35 -23 -33 -11 1 8 8 21 16 28 10 10 11 9 5 -3
-6 -12 -5 -13 5 -3 8 7 15 20 16 28 3 18 -5 13 -60 -34 l-30 -26 22 28 c11 16
18 35 15 43 -4 12 -12 10 -36 -13 l-31 -28 27 34 c31 37 28 55 -3 26 -11 -10
-20 -14 -20 -10 0 4 -9 0 -20 -10 -32 -29 -36 -9 -6 30 15 19 24 35 20 35 -3
0 -1 7 6 15 10 12 8 13 -11 10 -17 -4 -20 -2 -11 7 35 35 -9 59 -47 26 -14
-13 -20 -16 -13 -8 16 19 15 31 -3 24 -12 -5 -15 4 -16 47 -1 42 -3 49 -9 29
l-8 -25 -2 25 c-1 14 -4 19 -7 12 -4 -10 -8 -10 -20 -1 -12 10 -17 10 -24 -2
-7 -10 -9 -4 -5 21 4 25 3 29 -3 15 -9 -19 -9 -19 -16 -1 -8 17 -9 17 -27 -5
-14 -17 -18 -19 -14 -6 10 30 -15 18 -25 -13 -6 -16 -16 -30 -22 -30 -7 0 -7
4 1 12 7 7 12 23 12 38 0 20 -2 22 -10 10 -7 -11 -8 -5 -4 20 4 26 3 31 -5 20
-9 -12 -11 -11 -12 10 -1 17 -3 19 -6 8 -2 -10 -9 -18 -14 -18 -12 0 -45 31
-42 39 1 3 -1 8 -3 10 -2 2 -4 -3 -4 -13 0 -9 -4 -14 -10 -11 -5 3 -10 0 -10
-7 0 -10 -2 -10 -9 1 -7 11 -10 10 -18 -4 -7 -13 -12 -14 -18 -6 -5 8 -18 0
-41 -26 -42 -46 -27 -13 16 37 17 19 28 26 24 16 -5 -14 -4 -17 5 -12 7 4 10
13 8 19 -2 7 0 21 6 32 8 18 7 17 -12 -2 -12 -13 -27 -23 -32 -23 -6 0 -35
-21 -65 -46 -54 -47 -70 -52 -58 -20 4 11 9 14 13 7 4 -6 15 5 26 24 10 19 15
38 12 41 -4 4 -27 -10 -52 -30 -25 -21 -45 -33 -45 -27 0 5 4 13 10 16 5 3 10
16 9 28 0 21 -1 21 -9 2 -5 -11 -9 -15 -9 -10 -1 6 -6 3 -11 -5 -9 -13 -12
-13 -24 3 -11 14 -15 15 -19 5 -3 -7 -6 -2 -6 12 -1 19 -4 21 -10 11 -15 -24
-30 98 -16 134 4 11 -2 7 -14 -10 -11 -16 -21 -35 -21 -42 0 -6 -3 -14 -8 -17
-13 -8 -1 78 12 89 7 6 18 21 25 35 11 20 7 18 -20 -10 -19 -19 -44 -51 -56
-70 -12 -19 -23 -31 -23 -26 0 5 14 31 30 58 17 26 30 51 30 55 0 12 -50 -48
-67 -80 -10 -20 -18 -27 -21 -19 -2 8 4 26 15 40 31 43 38 56 25 48 -7 -4 -12
-2 -12 4 0 19 -26 -12 -38 -45 -8 -23 -11 -26 -12 -10 -2 17 -3 16 -10 -5 -6
-20 -9 -12 -16 40 -5 36 -8 71 -8 77 1 7 -2 10 -8 7 -5 -3 -6 5 -3 19 4 14 1
37 -7 52 l-15 27 0 -30 c0 -17 -7 -38 -16 -47 -10 -9 -17 -27 -17 -39 0 -44
-13 -86 -26 -86 -9 0 -12 13 -9 47 2 27 6 78 8 114 2 37 7 73 11 80 4 8 -2 3
-13 -11 -11 -14 -21 -33 -21 -43 0 -10 -4 -16 -9 -12 -5 3 -15 -21 -21 -52
-16 -80 -32 -124 -24 -63 4 25 6 53 6 62 0 10 3 20 9 23 5 4 9 15 9 26 0 13
-4 18 -12 13 -7 -4 -3 6 8 22 41 59 37 69 -13 29 -35 -27 -39 -29 -16 -7 17
17 38 41 47 54 15 22 14 24 -6 25 -12 1 -27 -2 -33 -7 -8 -7 -11 -3 -10 12 1
11 10 27 20 34 11 8 13 14 6 14 -7 0 -9 4 -6 10 4 6 -1 7 -12 3 -16 -6 -17 -5
-3 12 14 18 14 18 -20 -1 -19 -10 -42 -25 -51 -32 -9 -7 -28 -14 -41 -16 -29
-3 -48 -14 -48 -28 0 -6 7 -5 18 3 14 11 14 10 -2 -8 -18 -21 -36 -23 -36 -3
0 5 13 24 30 42 16 18 30 37 30 42 0 5 19 27 43 49 23 22 32 35 21 29 -12 -7
-41 -33 -65 -59 -42 -48 -42 -48 -21 -10 12 21 20 43 16 48 -3 6 0 16 6 24 8
10 9 15 2 15 -6 0 -18 -12 -26 -27 -8 -16 -15 -24 -16 -19 0 5 -10 0 -22 -11
-34 -30 -57 -36 -55 -13 1 10 5 18 10 17 5 -1 12 4 14 11 3 7 1 12 -4 11 -25
-4 -33 2 -23 19 16 28 40 94 39 106 0 6 -14 -16 -29 -49 -32 -65 -32 -31 0 40
22 51 31 75 25 75 -2 0 -11 -15 -20 -32 -8 -18 -26 -46 -40 -63 l-25 -30 15
30 c22 45 18 54 -10 20 l-26 -30 22 39 c11 22 32 54 46 73 14 18 21 33 15 33
-6 0 -14 -5 -17 -10 -4 -6 -12 -7 -18 -4 -7 4 -9 3 -4 -1 8 -10 -31 -55 -47
-55 -6 0 -2 7 8 15 14 11 16 15 5 15 -12 1 -12 2 1 13 8 7 21 20 29 30 12 15
12 17 -4 11 -15 -6 -16 -5 -4 15 8 11 21 21 29 21 8 0 22 5 30 11 12 8 9 10
-12 6 -16 -2 -28 0 -28 4 0 5 8 9 18 9 9 1 28 7 41 14 23 13 22 14 -23 20 -42
7 -46 9 -30 20 10 7 27 11 38 9 18 -4 17 -2 -4 11 l-25 15 38 1 c21 0 36 4 33
9 -3 5 -16 7 -28 3 -17 -4 -20 -2 -15 12 5 13 0 18 -24 23 -20 4 -26 8 -18 14
7 4 21 3 30 -2 25 -13 83 -11 112 4 22 12 23 14 9 24 -13 8 -10 9 15 6 17 -3
39 0 50 6 14 9 11 10 -19 5 -23 -4 -38 -2 -38 4 0 6 -9 8 -20 5 -12 -3 -20 -2
-19 3 5 31 -2 56 -16 51 -8 -4 -17 -2 -20 3 -4 6 4 10 17 10 20 0 24 5 23 28
0 21 -5 28 -25 30 -14 2 -29 7 -33 11 -4 4 6 6 22 3 19 -2 36 2 45 11 9 8 31
25 51 37 19 12 35 23 35 25 0 5 -64 -20 -100 -39 -28 -15 -32 -16 -22 -3 11
13 10 17 -5 26 -14 9 -12 9 14 5 23 -5 39 -1 56 13 23 17 23 20 9 30 -16 10
-15 12 3 27 22 17 14 21 -14 7 -10 -6 -23 -6 -32 0 -12 7 -11 9 2 9 9 0 19 7
23 15 4 12 0 14 -22 9 -19 -5 -24 -3 -17 4 6 6 21 12 35 15 14 3 -9 3 -50 1
-49 -2 -68 0 -55 6 l20 9 -20 1 c-16 1 -15 3 8 12 33 12 35 28 5 29 -18 1 -17
3 7 9 l30 7 -24 10 c-15 6 -20 12 -13 17 6 3 13 2 17 -4 3 -5 16 -10 27 -10
15 0 7 7 -24 24 -25 13 -54 26 -64 29 -16 4 -16 5 3 6 34 2 36 18 6 36 -27 15
-27 16 -3 9 36 -10 71 -10 100 0 25 9 25 9 5 -10 -12 -11 -15 -15 -8 -10 7 5
13 6 13 2 0 -3 11 -1 25 4 22 8 25 7 25 -11 0 -11 -5 -17 -10 -14 -13 8 -8
-17 5 -28 6 -4 4 -11 -5 -18 -12 -9 -11 -10 6 -6 13 3 26 -3 35 -14 7 -10 16
-16 20 -13 4 2 10 0 13 -5 3 -5 -4 -12 -17 -16 -22 -6 -21 -7 6 -17 17 -6 24
-14 20 -21 -13 -21 -12 -37 3 -37 20 0 18 -39 -3 -64 -12 -14 -13 -17 -3 -9
20 15 84 27 76 14 -4 -5 -3 -11 1 -14 5 -2 2 -2 -4 -1 -7 2 -13 -1 -13 -7 0
-6 -4 -7 -10 -4 -16 10 -12 -11 5 -25 8 -7 13 -16 10 -20 -3 -5 5 -6 17 -2
l23 5 -20 -24 -20 -23 29 18 c16 10 25 13 22 7 -14 -21 18 -11 48 17 29 25 29
25 8 1 -22 -25 -30 -45 -14 -35 4 3 13 -8 19 -25 9 -23 9 -29 -3 -29 -8 0 -14
-4 -14 -10 0 -10 27 -3 47 12 13 10 27 -7 18 -22 -4 -6 1 -7 11 -3 13 5 15 3
9 -7 -6 -10 -4 -12 7 -8 8 4 21 2 29 -3 11 -7 11 -9 -3 -9 -10 0 -18 -3 -18
-6 0 -4 8 -13 18 -21 9 -7 13 -13 7 -12 -24 3 -27 -2 -9 -16 22 -17 38 -20 29
-5 -3 6 -1 10 4 10 21 0 6 -34 -18 -42 -9 -2 0 -11 23 -22 21 -10 40 -15 43
-12 3 3 -6 8 -21 12 -14 3 -26 10 -26 15 0 13 17 11 26 -2 3 -6 17 -9 30 -6
13 2 24 2 24 -1 0 -3 -24 -27 -53 -54 -46 -43 -50 -50 -34 -59 12 -7 16 -17
11 -31 -3 -11 -2 -18 3 -15 5 3 14 -7 21 -23 8 -16 24 -31 38 -34 14 -4 39
-17 55 -28 28 -21 30 -21 47 -4 16 16 16 17 -1 10 -36 -13 -2 33 41 55 12 7
20 17 16 22 -4 7 1 7 14 0 11 -6 24 -20 27 -31 3 -11 9 -20 13 -21 30 -3 48
-10 57 -21 5 -7 24 -14 40 -16 21 -2 26 0 16 6 -10 7 -5 12 20 17 29 7 31 9
14 16 -17 7 -18 8 -2 10 20 2 26 3 47 12 8 3 28 9 44 14 17 5 39 25 53 46 l24
37 -22 8 c-20 8 -20 8 5 20 14 6 26 16 26 22 0 5 23 21 50 35 28 14 48 30 45
34 -2 5 4 11 16 14 11 3 19 11 18 19 -3 25 1 38 12 38 8 0 7 -6 -2 -17 -12
-14 -12 -16 1 -11 8 2 20 19 25 36 6 17 15 35 19 39 5 5 6 2 1 -7 -6 -11 -3
-10 12 2 25 23 36 23 25 0 -5 -9 -7 -23 -5 -30 3 -7 -1 -20 -9 -29 -9 -12 -9
-15 0 -9 17 10 15 -5 -5 -33 -9 -14 -11 -21 -5 -17 8 5 12 0 12 -13 0 -12 -3
-20 -7 -19 -5 1 -18 -3 -30 -10 -22 -12 -22 -42 0 -38 27 6 47 19 47 30 0 7
11 23 25 36 13 12 22 28 18 34 -3 6 -3 8 2 4 13 -12 44 37 49 77 7 54 16 56
12 1 -2 -25 0 -46 5 -46 16 0 32 45 31 85 -1 25 1 35 7 27 6 -11 10 -10 16 5
5 10 9 21 9 25 1 4 9 15 19 25 10 10 25 27 33 38 15 19 15 18 10 -12 -3 -19
-1 -33 4 -33 11 0 13 15 10 74 -1 31 1 38 13 33 11 -4 13 0 10 14 -4 15 -2 18
11 13 9 -3 16 -1 16 6 0 6 9 10 20 8 10 -2 26 6 35 17 15 19 15 18 10 -20 l-6
-40 16 35 c9 19 18 55 21 79 4 43 11 59 53 111 20 25 20 25 16 3 -2 -15 1 -23
10 -23 12 0 18 25 31 125 6 49 6 144 0 154 -4 6 -9 35 -12 64 -7 79 -8 86 -14
82 -4 -2 -17 20 -29 49 -12 29 -42 77 -67 106 -24 28 -49 61 -55 71 -5 10 -17
19 -27 19 -9 0 -30 18 -46 39 -19 26 -35 38 -47 36 -11 -2 -33 11 -56 34 -21
21 -58 49 -83 64 -68 40 -31 32 42 -9 81 -46 166 -89 153 -77 -30 27 -86 63
-130 82 -27 12 -52 25 -55 29 -4 6 -122 81 -200 128 -8 5 -51 12 -95 15 -44 3
-122 16 -172 30 -76 20 -92 27 -87 41 4 13 0 15 -17 11 -16 -4 -20 -2 -17 8 3
8 -4 20 -16 26 -19 11 -17 12 14 8 27 -4 30 -3 15 4 -20 10 -20 10 1 10 11 1
26 -5 33 -11 11 -11 12 -9 3 7 -6 11 -17 28 -24 39 -13 17 -15 17 -31 1 -16
-15 -17 -15 -17 2 0 15 -2 16 -10 3 -7 -11 -10 -11 -10 -2 0 7 -4 11 -9 7 -6
-3 -24 8 -41 25 -33 33 -46 37 -53 18 -4 -9 -6 -8 -6 2 -1 20 -31 45 -53 45
-10 0 -17 2 -16 5 1 3 -4 16 -11 28 l-13 24 31 -23 c17 -12 33 -20 37 -17 3 4
-6 14 -21 24 -14 9 -30 26 -36 36 -9 18 -8 18 10 8 l21 -11 -20 36 c-24 43
-25 52 -5 35 18 -15 20 1 2 19 -9 11 -9 12 0 7 7 -4 18 -16 24 -28 9 -16 8
-19 -3 -13 -7 5 -10 4 -5 0 4 -5 17 -10 28 -12 17 -3 18 0 9 16 -15 29 -12 57
7 72 9 8 14 9 10 2 -4 -6 -3 -13 2 -15 4 -1 18 -21 30 -43 23 -42 20 -12 -4
37 l-13 27 24 -16 c23 -15 24 -14 18 3 -4 13 3 9 21 -11 19 -21 24 -24 16 -8
-18 36 -12 40 15 8 17 -20 22 -23 15 -8 -20 40 -11 48 15 15 15 -18 32 -31 40
-28 8 3 11 0 7 -10 -6 -16 33 -64 52 -64 7 0 20 9 30 20 10 11 15 20 10 20 -4
0 -2 7 5 15 14 16 34 10 23 -8 -14 -23 -10 -66 6 -65 9 0 31 -2 49 -6 19 -4
39 -8 45 -9 7 -1 12 6 12 15 0 10 6 23 12 29 10 10 17 7 33 -12 20 -23 21 -23
15 -2 -9 34 9 35 61 1 27 -18 55 -33 63 -34 7 -1 23 -12 35 -23 23 -22 42 -28
31 -11 -11 17 11 11 27 -7 30 -35 31 -46 4 -28 -49 32 -26 6 37 -41 34 -27 64
-51 67 -54 13 -17 68 -31 75 -20 6 9 53 1 60 -11 3 -4 12 -6 20 -2 8 3 15 0
15 -5 0 -6 11 -9 24 -6 14 2 28 0 31 -6 4 -6 11 -8 16 -5 5 4 9 -2 9 -12 0
-14 2 -15 9 -5 7 11 13 9 30 -9 11 -12 21 -19 21 -15 0 4 7 1 15 -8 8 -8 15
-22 15 -30 0 -9 7 -16 15 -16 8 0 15 6 15 12 0 7 15 -7 33 -32 37 -52 87 -106
87 -95 0 4 7 1 17 -6 15 -13 15 -12 0 18 -17 32 -24 68 -9 48 10 -14 31 -13
41 3 5 9 11 5 19 -13 7 -16 17 -23 24 -19 7 4 8 3 4 -5 -6 -9 -12 -9 -24 0
-14 11 -14 9 1 -6 14 -16 21 -18 37 -7 16 10 18 9 13 -5 -5 -11 -3 -14 6 -8
10 6 11 3 2 -13 -15 -28 -15 -50 0 -35 9 9 17 6 32 -13 18 -24 20 -24 33 -7
13 17 13 17 14 1 0 -10 5 -18 11 -18 5 0 7 -4 4 -10 -3 -5 -1 -10 6 -10 8 0 8
-4 -1 -15 -11 -13 -10 -14 6 -8 17 6 18 5 4 -12 -14 -17 -14 -17 7 -4 12 7 19
16 14 19 -9 5 -31 45 -31 54 0 3 5 6 10 6 6 0 10 -7 10 -16 0 -11 6 -15 20
-11 12 3 20 0 20 -8 0 -8 8 -11 20 -8 31 8 24 -3 -17 -27 -34 -20 -36 -23 -18
-30 18 -6 17 -8 -8 -25 -33 -21 -29 -32 5 -15 19 10 21 10 11 -1 -18 -18 -16
-30 2 -23 8 4 17 -1 21 -10 3 -9 11 -13 18 -9 6 4 5 -1 -3 -10 -17 -21 -7 -22
24 -1 24 16 25 15 25 -6 0 -16 4 -20 15 -16 8 3 15 1 15 -5 0 -6 -9 -13 -20
-16 -11 -3 -18 -9 -15 -13 9 -15 -14 -21 -34 -11 -17 9 -19 8 -16 -15 1 -17
-1 -22 -8 -15 -17 17 -37 1 -31 -25 5 -20 2 -24 -15 -24 -12 0 -21 -5 -21 -11
0 -5 6 -7 13 -3 9 6 9 5 0 -8 -7 -8 -10 -18 -6 -22 4 -4 -3 -9 -16 -13 -13 -3
-20 -11 -17 -19 3 -9 -6 -14 -27 -16 -23 -2 -32 -8 -31 -20 1 -10 -3 -19 -10
-20 -6 0 -15 -2 -21 -2 -21 -3 -35 -18 -28 -29 4 -7 13 -28 20 -47 9 -27 9
-36 0 -42 -9 -6 -9 -8 1 -8 7 0 10 -4 7 -10 -3 -5 1 -10 9 -10 10 0 13 6 10
15 -5 11 -2 13 10 9 17 -6 17 -9 19 -46 1 -17 -5 -24 -23 -27 -23 -3 -24 -4
-5 -12 17 -7 16 -8 -8 -8 -16 -1 -26 -5 -23 -10 3 -4 -6 -6 -19 -3 -20 3 -24
1 -19 -11 4 -12 1 -14 -14 -10 -11 2 -23 0 -26 -6 -4 -6 -2 -11 3 -11 6 0 11
-6 11 -14 0 -8 9 -17 19 -21 11 -3 22 -12 25 -20 6 -18 36 -20 36 -3 0 9 3 9
12 0 10 -10 10 -15 -1 -21 -10 -7 -6 -9 12 -8 21 2 25 6 21 20 -3 9 0 17 6 17
14 0 49 -40 50 -57 0 -7 7 -10 15 -7 10 4 15 0 15 -14 0 -11 6 -22 13 -25 10
-4 12 4 9 27 -2 22 -1 27 6 17 8 -11 11 -10 15 5 4 16 5 15 6 -4 0 -13 6 -20
11 -17 14 9 12 -29 -2 -43 -9 -9 -9 -12 0 -12 7 0 12 -4 12 -10 0 -5 -8 -7
-17 -4 -15 5 -16 4 -3 -5 9 -6 18 -7 24 -1 17 17 29 11 15 -7 -12 -15 -12 -16
3 -11 25 10 68 -32 68 -66 0 -24 -2 -27 -15 -16 -10 9 -15 9 -15 1 0 -11 13
-15 39 -12 7 2 11 -4 8 -11 -2 -7 -10 -12 -16 -10 -7 1 -10 -2 -6 -8 3 -5 1
-10 -5 -10 -6 0 -9 -4 -5 -9 3 -5 -6 -21 -20 -35 -25 -25 -25 -27 -9 -51 19
-30 28 -32 19 -6 -3 11 -1 22 5 26 6 4 9 13 6 21 -3 8 -2 14 3 14 4 0 7 -25 7
-56 -1 -43 -5 -59 -20 -70 -11 -7 -17 -17 -13 -21 4 -3 15 1 24 9 17 15 35 9
41 -14 1 -5 5 -9 10 -10 4 -1 15 -9 24 -17 16 -13 15 -17 -9 -45 -31 -37 -53
-86 -53 -121 0 -30 5 -31 48 -5 22 14 32 27 32 45 0 17 5 25 18 25 9 0 13 -4
7 -8 -5 -4 -12 -22 -13 -41 -3 -32 -3 -33 13 -18 9 10 21 17 26 17 12 0 12
-17 -1 -25 -5 -3 -7 -12 -4 -19 3 -8 1 -17 -5 -21 -7 -3 -8 0 -5 9 4 10 1 16
-8 16 -7 0 -19 -14 -25 -31 -11 -27 -10 -29 4 -17 15 12 15 11 4 -9 -7 -15 -8
-23 -1 -23 5 0 10 4 10 9 0 14 31 42 40 36 4 -3 6 -14 3 -25 -3 -11 -9 -17
-14 -14 -5 3 -9 -7 -9 -23 0 -20 -3 -24 -9 -14 -7 11 -9 11 -14 0 -5 -11 -9
-10 -21 4 -9 12 -19 16 -28 10 -14 -8 -14 -10 -16 -73 -2 -28 -6 -40 -17 -40
-16 0 -16 1 -20 -50 -1 -19 -5 -42 -8 -50 -4 -8 -11 -55 -17 -105 -16 -137
-29 -226 -40 -270 -17 -68 -12 -114 14 -146 13 -15 27 -25 31 -21 4 4 4 -14 1
-40 -4 -27 -5 -52 -2 -57 9 -14 43 -1 52 20 9 20 9 20 31 -1 12 -11 26 -20 32
-20 5 0 12 -6 14 -12 3 -8 6 -5 6 5 1 10 8 32 17 49 12 24 18 28 25 17 5 -8 9
-9 9 -3 0 6 13 25 29 43 25 28 29 30 33 13 3 -11 1 -28 -4 -38 -7 -15 -5 -14
10 3 11 12 23 19 26 15 4 -3 4 1 1 10 -4 9 -2 19 4 23 6 3 11 -1 11 -9 0 -10
6 -13 17 -9 12 5 14 3 8 -7 -5 -9 -4 -11 4 -6 6 4 23 0 36 -8 24 -16 25 -15
25 4 0 16 5 19 25 16 22 -4 25 -2 20 15 -4 11 -2 19 6 19 9 0 9 3 0 14 -9 11
-8 18 5 30 9 9 13 23 10 31 -4 12 3 15 32 15 l37 0 -30 25 c-19 15 -25 24 -15
25 13 0 13 1 0 10 -13 8 -13 10 2 10 12 0 16 5 12 18 -4 11 1 8 15 -8 20 -24
21 -24 21 -3 0 16 5 20 20 16 13 -3 20 0 20 8 0 22 -17 42 -28 35 -6 -3 -9 5
-8 19 0 14 5 25 9 25 5 0 5 4 2 10 -3 5 -2 17 3 26 6 11 11 13 16 5 4 -6 12
-11 19 -11 6 0 2 6 -9 14 -13 10 -23 11 -31 4 -17 -14 -17 4 0 21 8 10 8 12 0
7 -17 -9 -27 12 -13 29 17 20 0 19 -30 -2 l-25 -17 20 24 c21 24 7 20 -31 -9
-11 -9 -4 -1 15 18 21 21 36 30 39 23 2 -7 8 -10 13 -6 5 3 9 0 9 -6 0 -6 5
-8 12 -4 8 5 9 1 4 -12 -6 -15 -5 -16 5 -7 9 9 23 6 60 -13 27 -13 52 -25 56
-27 18 -6 20 55 3 89 -19 35 -19 36 0 19 18 -16 18 -16 13 4 -6 24 -15 26 -44
11 -14 -8 -19 -7 -19 2 0 10 -2 10 -9 0 -6 -10 -10 -8 -14 8 -4 15 -10 19 -19
14 -7 -4 -10 -4 -6 1 4 4 -3 16 -15 26 -12 10 -16 18 -9 19 6 0 12 -4 12 -9 0
-5 13 -14 29 -19 l29 -10 -14 34 c-8 19 -12 39 -9 43 3 5 -1 11 -8 14 -10 4
-13 34 -8 78 1 13 21 2 21 -12 0 -6 -4 -7 -10 -4 -18 11 -10 -7 12 -26 11 -11
22 -19 23 -19 8 0 -7 65 -16 70 -6 4 -11 13 -12 21 -2 8 -7 20 -11 28 -6 9 -5
12 1 8 8 -5 8 5 1 32 -9 35 -38 66 -38 41 0 -6 5 -10 12 -10 6 0 8 -3 5 -6 -3
-4 -2 -14 3 -24 6 -12 5 -17 -5 -17 -8 0 -12 3 -10 7 4 7 -81 167 -118 222
-11 16 -24 25 -33 21 -13 -5 -13 -8 -1 -22 8 -9 17 -23 21 -31 4 -8 0 -6 -8 4
-21 25 -21 4 0 -35 8 -17 13 -33 10 -37 -3 -3 -6 -1 -6 4 0 6 -7 19 -15 30
-13 17 -13 16 -4 -16 17 -56 39 -135 39 -139 0 -3 -6 4 -14 14 -12 16 -12 12
-6 -31 5 -27 4 -53 -1 -59 -5 -5 -10 11 -11 40 -1 28 -3 64 -3 80 -2 33 -20
93 -41 133 -8 15 -14 34 -15 42 0 10 -2 11 -6 3 -6 -15 -33 8 -34 29 0 7 -5 2
-10 -12 -6 -14 -8 -47 -4 -75 5 -47 5 -48 -8 -25 -17 30 -32 103 -17 80 7 -12
10 -8 10 15 0 23 -3 27 -10 15 -8 -11 -9 -8 -4 13 4 17 2 27 -6 27 -6 0 -8 5
-3 13 7 11 12 57 6 57 -3 0 -56 -112 -66 -140 -3 -8 -6 18 -6 58 -1 46 -5 71
-11 67 -5 -3 -10 -19 -10 -36 0 -16 -4 -29 -9 -29 -5 0 -12 -8 -14 -17 -2 -10
-2 0 0 22 3 22 13 58 24 81 21 44 24 58 10 50 -5 -4 -7 3 -4 14 3 11 10 17 15
14 6 -4 6 0 0 12 -6 11 -10 23 -10 27 0 5 -4 12 -8 15 -4 4 -4 1 0 -5 4 -8 2
-13 -6 -13 -11 0 -10 -2 0 -9 11 -7 11 -9 -1 -14 -12 -4 -14 1 -11 23 3 15 0
31 -6 35 -5 3 -10 1 -10 -5 0 -6 -5 -8 -10 -5 -6 4 0 19 15 37 19 23 23 34 15
43 -9 11 -7 12 9 8 16 -4 19 -1 15 19 -2 12 -2 17 2 10 3 -6 10 -10 15 -6 11
6 12 24 2 23 -20 -3 -32 2 -35 17 -3 14 -7 13 -30 -5 -14 -12 -34 -21 -43 -21
-9 0 -13 -4 -10 -10 12 -20 -15 -9 -40 16 -14 14 -30 22 -35 19 -6 -3 -10 -2
-10 3 0 5 11 15 25 22 13 7 22 17 19 22 -3 4 7 9 23 9 24 2 25 2 5 6 -13 3
-28 0 -35 -5 -7 -5 -21 -12 -32 -16 -18 -5 -17 -4 3 12 18 14 20 20 10 30 -9
9 -8 12 7 13 19 0 19 1 0 8 -19 8 -19 8 3 15 12 4 22 12 22 17 0 5 9 9 20 9
13 0 18 5 14 15 -4 10 -14 13 -33 9 l-26 -6 25 21 c23 19 24 21 5 21 -18 1
-19 2 -2 9 24 9 23 18 -5 41 -16 13 -18 19 -9 20 11 0 11 3 -3 13 -9 7 -26 31
-36 54 l-18 42 25 -2 c18 -1 27 4 29 16 1 11 0 16 -3 13 -4 -3 -12 -1 -19 5
-9 7 -19 7 -36 -2 -13 -7 -24 -11 -25 -10 -1 2 -19 9 -39 16 -21 7 -41 21 -45
32 -6 17 -3 19 25 15 23 -2 27 -1 16 7 -12 8 -11 11 5 16 11 4 30 10 42 15 17
7 22 5 26 -11 5 -19 27 -27 27 -9 0 6 4 10 10 10 5 0 7 -8 3 -17 -5 -14 -3
-16 7 -6 9 8 19 9 32 2 10 -5 22 -7 27 -4 15 9 6 38 -14 45 -15 5 -19 18 -20
63 -1 36 2 55 9 54 6 -1 10 4 8 11 -4 19 26 45 44 38 9 -3 22 0 30 8 7 8 22
12 33 9 10 -3 22 0 25 6 4 6 3 11 -1 11 -5 0 -17 6 -27 13 -14 10 -15 18 -7
40 9 24 8 27 -7 25 -14 -2 -18 6 -20 40 -2 28 -7 40 -14 36 -7 -4 -8 -2 -4 4
4 7 15 12 24 12 27 0 50 34 45 64 -5 24 -3 27 18 24 13 -2 29 -7 36 -11 7 -4
14 1 18 14 4 11 9 18 12 15 4 -3 12 2 20 12 14 16 14 16 8 -3 -6 -18 -4 -18
18 3 13 12 27 22 31 22 5 0 17 12 28 26 16 20 23 23 29 12 6 -9 9 -6 9 12 0
18 3 21 9 12 6 -11 10 -10 15 4 3 9 9 14 13 10 3 -3 17 1 31 10 25 16 34 12
45 -20 2 -6 21 1 42 15 22 13 57 31 78 40 21 8 37 19 36 25 -4 14 83 77 91 65
4 -7 13 -6 26 5 18 15 18 15 -3 9 -13 -4 -23 -3 -23 2 0 11 73 69 83 65 4 -1
17 3 29 9 11 6 36 13 55 14 18 2 70 22 113 45 44 22 80 36 80 30 0 -6 5 -8 12
-4 8 5 9 2 4 -12 -6 -16 -4 -16 16 3 27 26 44 19 53 -20 7 -27 8 -28 74 -24
l66 3 15 42 c9 22 29 57 47 76 17 19 34 43 38 53 6 16 8 16 16 -4 11 -29 19
-30 11 -1 -3 14 -2 19 6 14 7 -4 12 -2 12 4 0 6 4 9 9 6 5 -4 12 0 14 6 4 10
6 10 6 1 1 -7 5 -13 10 -13 17 0 20 30 6 57 -8 15 -15 37 -15 48 0 18 2 18 20
-5 11 -14 20 -32 20 -41 0 -9 10 -28 21 -43 19 -25 23 -26 38 -12 10 9 22 16
28 16 6 0 14 6 16 13 3 7 6 5 6 -5 1 -10 -3 -18 -8 -18 -6 0 -9 -9 -8 -20 1
-10 3 -17 6 -15 2 3 9 -3 16 -12 9 -13 14 -13 20 -3 6 9 4 11 -6 5 -8 -5 -10
-4 -6 0 14 16 39 14 33 -2 -4 -10 -2 -13 8 -10 15 6 46 -22 46 -41 0 -7 4 -12
10 -12 5 0 6 -7 3 -17 -4 -11 -3 -14 5 -9 16 10 15 -6 0 -23 -11 -12 -10 -13
6 -7 16 5 17 4 6 -9 -12 -14 -7 -20 15 -15 6 1 5 -4 -1 -10 -13 -13 -54 -5
-54 11 0 5 -7 9 -15 9 -11 0 -14 -12 -12 -52 1 -38 -2 -52 -10 -50 -7 1 -13
-2 -13 -7 0 -5 -7 -11 -15 -15 -12 -4 -14 0 -10 22 l5 27 -11 -27 c-13 -34
-29 -36 -30 -5 0 12 -3 16 -6 10 -2 -7 -9 -13 -15 -13 -6 0 -7 7 -4 16 5 12 2
15 -11 10 -14 -6 -14 -4 3 15 19 22 19 22 -3 10 -30 -15 -38 -14 -22 5 17 21
21 46 6 37 -7 -3 -3 3 7 15 19 22 16 37 -7 37 -7 0 -12 12 -12 27 1 20 -4 25
-18 22 -21 -4 -50 19 -39 30 3 4 -1 4 -11 0 -13 -4 -16 -12 -11 -28 6 -19 5
-19 -10 -6 -16 12 -18 12 -16 -1 5 -34 -1 -50 -17 -48 -35 3 -41 -2 -52 -45
-7 -28 -21 -53 -38 -66 -16 -12 -28 -29 -28 -38 0 -10 -9 -17 -21 -18 -12 -1
-26 -4 -33 -8 -6 -4 -11 -3 -11 3 0 15 -63 1 -73 -16 -4 -7 -13 -13 -20 -13
-7 0 -6 4 3 10 26 17 6 11 -41 -12 -24 -12 -57 -25 -74 -29 -25 -6 -20 -7 26
-8 57 -1 148 21 185 44 13 8 26 10 35 5 17 -11 17 -10 -56 -40 -33 -13 -75
-24 -95 -24 -19 1 -26 -1 -16 -4 15 -3 16 -6 5 -13 -9 -6 -2 -7 21 -4 l35 5
-40 -14 c-22 -8 -66 -22 -97 -31 -31 -10 -56 -22 -55 -28 2 -12 -121 -87 -144
-87 -8 0 -37 -14 -64 -31 -27 -17 -58 -35 -70 -39 -36 -14 -144 -107 -253
-219 -94 -97 -104 -105 -116 -88 -12 16 -15 14 -30 -23 -9 -22 -27 -57 -40
-78 -15 -25 -27 -65 -34 -116 -10 -78 -8 -106 9 -106 4 0 6 7 3 15 -4 8 -1 15
5 15 6 0 11 8 11 18 1 15 2 14 12 -3 16 -29 16 -29 35 -14 13 11 15 11 9 1 -5
-8 -10 -34 -12 -59 -6 -58 -11 -65 -36 -57 -14 4 -18 2 -14 -5 4 -6 16 -11 27
-11 10 0 19 -4 19 -9 0 -5 -9 -7 -20 -4 -18 5 -19 3 -9 -26 6 -17 14 -31 18
-31 4 0 8 -12 9 -27 1 -15 7 -30 12 -33 6 -4 8 -14 4 -23 -3 -9 -2 -17 4 -17
5 0 14 -17 20 -37 l10 -38 1 39 c1 37 2 39 16 20 8 -10 15 -29 15 -42 0 -14 4
-21 11 -17 6 4 8 13 5 21 -3 8 -1 14 4 14 11 0 14 -13 10 -44 -1 -11 3 -16 10
-11 7 4 11 1 9 -6 -4 -32 4 -42 11 -14 7 29 8 29 15 8 4 -13 11 -23 16 -23 10
0 79 -70 79 -81 0 -5 10 -8 21 -6 16 1 22 -4 24 -20 1 -12 18 -39 38 -60 20
-20 37 -41 37 -45 0 -4 4 -8 9 -8 6 0 6 12 0 30 -6 16 -15 28 -20 25 -4 -3
-11 7 -15 22 -4 15 -11 34 -17 41 -17 22 -2 23 21 2 12 -12 22 -18 22 -15 0 4
7 0 15 -9 8 -8 15 -22 15 -31 0 -8 7 -18 15 -21 8 -4 15 -13 15 -20 0 -8 7
-17 15 -20 8 -4 12 -10 9 -15 -3 -5 2 -9 10 -9 9 0 16 -4 16 -10 0 -5 12 -16
28 -25 26 -15 26 -16 2 -10 -21 5 -22 4 -7 -5 19 -12 24 -35 5 -24 -7 4 -9 3
-5 -1 14 -16 36 -14 30 3 -4 10 -2 13 5 8 15 -9 15 -1 2 24 -7 13 -6 19 4 23
9 4 13 -2 12 -15 0 -12 5 -23 13 -26 8 -3 11 0 7 7 -4 7 -1 9 8 5 9 -3 14 -9
13 -12 -3 -11 51 -61 58 -53 4 3 5 -1 3 -9 -2 -9 4 -14 14 -14 10 1 14 -4 11
-12 -3 -8 2 -17 12 -20 9 -4 14 -13 11 -21 -3 -8 -2 -12 3 -8 14 8 41 -5 41
-21 0 -20 18 -17 23 4 3 12 5 10 6 -7 0 -13 4 -22 7 -18 4 3 13 -1 21 -9 8 -8
20 -11 26 -7 7 4 6 -1 -2 -10 -7 -9 -18 -14 -24 -10 -6 3 -7 1 -3 -5 4 -7 14
-12 22 -12 8 0 12 5 9 10 -9 15 6 11 45 -11 30 -17 23 -18 -17 -2 -7 3 -10 -8
-8 -34 3 -52 14 -73 41 -83 17 -7 21 -15 17 -32 -4 -21 -3 -22 10 -6 11 14 16
15 26 5 10 -9 17 -7 33 13 20 23 21 23 16 4 -8 -30 2 -42 39 -49 28 -4 35 0
58 29 22 29 24 38 15 55 -6 12 -7 21 -3 21 3 0 -6 14 -22 30 -16 17 -25 30
-20 30 5 0 4 5 -3 12 -7 7 -12 20 -12 29 0 10 -6 20 -12 23 -7 3 1 4 17 1 28
-5 29 -4 11 10 -11 8 -15 15 -9 15 6 0 21 -12 32 -27 l21 -28 -10 28 c-14 39
-12 46 5 23 11 -15 15 -16 15 -5 0 8 -6 21 -12 28 -11 11 -9 13 10 8 12 -3 20
-1 16 4 -3 5 0 9 7 9 8 0 8 4 -1 15 -18 22 -8 26 22 11 20 -11 25 -11 22 -2
-7 18 22 41 32 25 4 -8 3 -9 -4 -5 -18 11 -14 -10 5 -25 11 -9 14 -10 9 -2 -4
7 -1 23 6 35 6 13 13 29 14 36 3 18 14 29 14 14 0 -6 6 -9 14 -6 9 3 13 18 12
40 -2 40 0 41 25 12 l20 -23 -6 23 c-6 20 -4 21 22 12 26 -10 27 -9 8 5 -17
14 -18 17 -5 25 14 9 7 14 -13 11 -5 -1 -5 3 -2 9 4 6 14 9 22 6 11 -4 13 -2
9 9 -3 8 -1 15 4 15 6 0 10 -4 10 -10 0 -5 6 -10 13 -10 6 1 -1 11 -17 24
l-29 24 44 10 c34 8 38 10 16 11 -32 1 -27 21 5 21 16 0 18 3 9 14 -9 11 -6
15 14 20 14 4 23 11 20 15 -8 14 6 41 21 41 17 0 19 20 2 20 -7 1 -2 7 12 14
14 8 29 12 34 8 5 -3 7 2 3 11 -4 12 -1 17 11 17 15 0 15 2 2 10 -12 8 -10 10
8 10 13 0 21 4 17 9 -3 5 2 17 11 26 9 9 14 19 10 22 -10 10 14 32 29 27 10
-4 13 4 11 30 -4 41 2 44 34 16 13 -11 30 -20 39 -20 12 1 9 6 -9 20 -47 37
-50 41 -44 51 3 6 16 8 28 5 21 -5 21 -5 1 11 -19 15 -19 15 5 8 14 -4 37 -8
52 -9 17 -1 23 -4 17 -10 -16 -17 -10 -25 26 -32 33 -6 34 -8 18 -20 -13 -10
-14 -13 -4 -14 8 0 11 -3 8 -7 -4 -3 3 -17 14 -29 l22 -23 -32 12 c-17 6 -31
18 -31 26 0 11 -4 9 -15 -6 -18 -25 -13 -43 16 -62 32 -19 62 -23 56 -7 -3 8
3 16 14 19 12 3 22 0 26 -9 3 -8 9 -14 14 -14 6 0 5 10 -2 21 -8 15 -8 19 0
15 14 -9 34 -47 24 -45 -23 4 -34 -3 -29 -18 13 -45 17 -77 8 -65 -7 11 -11
10 -16 -3 -3 -10 -2 -23 4 -30 5 -6 7 -15 3 -18 -3 -4 2 -7 13 -8 17 0 16 -2
-4 -11 -16 -8 -21 -17 -16 -30 5 -16 1 -19 -18 -18 -47 4 -53 1 -29 -16 30
-22 13 -33 -43 -28 -22 2 -32 1 -21 -2 35 -9 64 -27 59 -36 -3 -4 0 -8 5 -8 6
0 11 -7 11 -16 0 -8 -5 -12 -11 -8 -6 3 -4 -5 5 -18 9 -14 14 -27 11 -30 -3
-3 6 -13 20 -22 15 -10 24 -23 22 -29 -2 -7 5 -25 16 -41 l20 -28 -36 23 c-20
13 -37 27 -37 32 0 18 -40 45 -59 40 -18 -5 -19 -8 -9 -21 8 -10 9 -13 1 -9
-6 4 -22 3 -35 -2 l-23 -10 24 0 c23 -1 24 -2 6 -15 -18 -13 -18 -13 1 -24 17
-10 17 -11 2 -12 -32 0 -19 -16 15 -18 24 -2 28 0 17 8 -8 5 -12 10 -8 10 4 0
24 -11 44 -25 20 -14 42 -25 49 -25 7 0 19 -8 26 -17 13 -16 12 -17 -3 -4 -10
8 -18 9 -18 3 0 -6 -2 -16 -5 -24 -3 -7 8 -28 24 -46 32 -34 32 -38 0 -22 -10
6 -19 7 -19 2 0 -5 11 -14 25 -20 14 -6 25 -16 25 -23 0 -6 -12 -1 -27 10 -30
24 -43 20 -22 -6 8 -9 -5 -2 -29 17 -41 32 -89 53 -63 27 6 -6 11 -16 11 -22
-1 -5 -9 0 -19 12 l-19 23 2 -24 c0 -13 4 -22 7 -20 9 5 42 -46 35 -54 -3 -3
-6 0 -6 6 0 7 -5 12 -11 12 -8 0 -8 -4 1 -14 6 -8 18 -12 26 -9 16 6 20 -22 4
-32 -6 -4 -8 -11 -4 -16 3 -5 9 -7 14 -4 4 3 29 -7 55 -22 56 -31 53 -34 94
97 100 319 139 583 128 876 -10 263 -47 472 -127 714 -227 692 -722 1243
-1381 1541 -227 103 -546 190 -692 189 -40 -1 -169 1 -287 4 -156 4 -231 2
-272 -7z m-85 -14 c-7 -2 -21 -2 -30 0 -10 3 -4 5 12 5 17 0 24 -2 18 -5z
m1838 -768 c7 -7 8 -1 4 18 -4 16 -3 27 3 27 15 0 24 -31 12 -45 -8 -10 -4
-18 13 -32 23 -18 46 -63 32 -63 -10 0 -44 43 -45 56 0 6 -9 19 -20 29 -13 12
-19 29 -19 49 l2 31 4 -30 c3 -16 9 -34 14 -40z m139 -19 c0 -5 -9 3 -20 17
-11 14 -20 29 -20 34 1 10 39 -39 40 -51z m-190 -35 c0 -12 -20 -25 -27 -18
-7 7 6 27 18 27 5 0 9 -4 9 -9z m276 -75 c3 -17 11 -38 18 -46 10 -13 9 -13
-6 -1 -10 7 -18 18 -18 24 0 6 -6 18 -14 26 -7 9 -17 27 -21 41 -8 25 -7 25
13 6 12 -10 24 -32 28 -50z m-3629 -48 c-3 -8 -6 -5 -6 6 -1 11 2 17 5 13 3
-3 4 -12 1 -19z m94 -11 c-6 -6 -11 -16 -11 -23 0 -17 -61 -84 -72 -78 -4 3
-8 -5 -9 -18 0 -13 -3 -17 -6 -10 -4 10 -9 8 -20 -7 -8 -12 -19 -19 -24 -16
-5 4 -9 -1 -9 -9 0 -8 -7 -22 -16 -30 -8 -9 -13 -20 -10 -25 3 -5 0 -11 -8
-14 -11 -5 -13 0 -6 22 13 45 30 71 46 71 8 0 14 6 13 13 -3 28 2 47 14 47 6
0 21 13 32 29 10 16 22 28 26 25 4 -2 12 3 19 11 7 8 19 15 26 15 8 0 14 8 15
18 0 11 2 13 6 4 3 -8 0 -19 -6 -25z m3561 -69 c-6 -6 -12 -6 -17 3 -5 8 -4
10 3 5 7 -4 12 0 13 11 0 12 2 13 6 5 3 -8 1 -18 -5 -24z m132 -34 c3 -8 2
-12 -4 -9 -6 3 -10 10 -10 16 0 14 7 11 14 -7z m-2863 -24 c5 0 9 -4 9 -9 0
-13 -28 -7 -43 9 -10 10 -9 12 6 6 10 -3 23 -6 28 -6z m-71 -53 c13 -5 13 -6
-1 -6 -9 -1 -24 9 -35 22 -19 22 -19 22 1 6 11 -9 27 -19 35 -22z m-1093 -39
c-3 -8 -6 -5 -6 6 -1 11 2 17 5 13 3 -3 4 -12 1 -19z m4020 -54 c-3 -3 -12 -4
-19 -1 -8 3 -5 6 6 6 11 1 17 -2 13 -5z m-2737 -50 c0 -2 -9 0 -20 6 -11 6
-20 13 -20 16 0 2 9 0 20 -6 11 -6 20 -13 20 -16z m1656 -20 c-30 -21 -44 -16
-17 7 13 11 27 17 30 13 3 -3 -3 -12 -13 -20z m-471 -4 c-10 -11 -22 -20 -28
-20 -5 0 1 9 14 20 31 25 37 25 14 0z m-1130 -10 c3 -6 -1 -7 -9 -4 -18 7 -21
14 -7 14 6 0 13 -4 16 -10z m2236 -48 c-6 -11 -18 -22 -26 -26 -12 -4 -10 2 7
23 26 32 35 33 19 3z m19 -46 c0 -3 -4 -8 -10 -11 -5 -3 -10 -1 -10 4 0 6 5
11 10 11 6 0 10 -2 10 -4z m-3105 -114 c-3 -3 -22 11 -43 33 l-37 38 43 -33
c24 -18 40 -35 37 -38z m-535 48 c0 -5 -4 -10 -10 -10 -5 0 -10 5 -10 10 0 6
5 10 10 10 6 0 10 -4 10 -10z m2415 -30 c-10 -17 -45 -32 -45 -20 0 6 10 15
23 20 29 12 29 12 22 0z m-288 -52 c-3 -8 -6 -5 -6 6 -1 11 2 17 5 13 3 -3 4
-12 1 -19z m35 -23 c-3 -5 2 -4 11 3 14 12 16 11 14 -7 -1 -24 -9 -26 -38 -11
-16 9 -17 14 -8 32 9 16 13 18 19 7 5 -7 6 -18 2 -24z m-324 0 c-3 -3 -9 2
-12 12 -6 14 -5 15 5 6 7 -7 10 -15 7 -18z m-1803 5 c3 -5 1 -10 -4 -10 -6 0
-11 5 -11 10 0 6 2 10 4 10 3 0 8 -4 11 -10z m2164 -47 c-12 -15 -12 -16 6 -9
14 5 17 4 9 -4 -6 -6 -19 -8 -29 -4 -17 7 -17 8 1 21 24 18 29 16 13 -4z
m1761 3 c0 -2 -8 -10 -17 -17 -16 -13 -17 -12 -4 4 13 16 21 21 21 13z m-3529
-53 c13 -16 12 -17 -3 -4 -10 7 -18 15 -18 17 0 8 8 3 21 -13z m3449 -23 c-13
-11 -27 -20 -33 -20 -12 0 35 39 47 40 5 0 -1 -9 -14 -20z m-1706 -33 c-3 -8
-12 -14 -21 -14 -13 0 -13 2 3 14 10 7 19 13 21 13 1 0 0 -6 -3 -13z m49 -28
c-5 -5 -19 -11 -31 -14 -12 -2 -27 -7 -32 -10 -6 -3 -10 1 -10 9 0 8 9 18 20
21 11 3 20 11 20 16 0 6 9 5 21 -2 13 -7 18 -14 12 -20z m-1253 0 c8 0 4 -4
-10 -8 -28 -9 -50 -4 -50 11 0 6 10 8 23 4 12 -3 29 -6 37 -7z m-230 -14 c0
-9 -6 -12 -15 -9 -8 4 -12 10 -9 15 8 14 24 10 24 -6z m36 -22 c-7 -7 -26 7
-26 19 0 6 6 6 15 -2 9 -7 13 -15 11 -17z m1462 15 c-4 -18 -38 -42 -46 -33
-4 4 4 15 17 26 27 22 32 23 29 7z m-1063 -19 c115 -23 118 -25 112 -50 -6
-22 -3 -23 24 -9 15 8 19 7 19 -5 0 -8 9 -15 19 -15 15 0 19 -6 16 -25 -2 -23
-1 -24 14 -11 14 13 20 11 55 -22 22 -19 45 -52 52 -71 7 -20 13 -32 14 -26 0
5 9 -7 20 -27 14 -27 19 -54 18 -98 -1 -34 -6 -64 -10 -66 -4 -3 -8 -15 -8
-27 0 -12 -18 -42 -40 -66 -22 -24 -37 -48 -34 -52 3 -5 0 -9 -5 -9 -6 0 -11
-7 -11 -15 0 -8 -8 -15 -18 -15 -18 0 -74 -50 -56 -50 17 -1 -29 -23 -65 -31
-21 -5 -42 -4 -54 3 -11 5 -17 6 -14 1 4 -6 -15 -9 -43 -9 -26 1 -48 6 -47 11
1 6 -15 9 -35 9 -24 -1 -39 4 -42 13 -4 10 -14 13 -31 9 -14 -4 -25 -2 -25 3
0 6 -7 7 -17 4 -11 -4 -14 -3 -9 5 5 8 0 12 -13 12 -14 0 -19 5 -15 15 4 10 2
14 -7 10 -19 -6 -46 16 -58 48 -6 15 -18 27 -26 27 -9 0 -13 4 -10 10 6 10
-19 63 -42 88 -7 7 -13 22 -13 33 0 31 -1 33 -17 52 -9 9 -12 17 -7 17 5 0 10
21 11 48 3 71 32 174 57 197 12 11 20 28 18 38 -2 10 3 17 12 17 9 0 16 4 16
9 0 5 15 14 33 20 81 25 142 26 262 0z m2085 6 c0 -8 -5 -14 -11 -12 -6 1 -13
-3 -15 -8 -2 -6 5 -11 16 -12 11 -1 18 2 15 6 -2 5 1 13 8 19 14 12 97 4 97
-9 0 -5 5 -9 12 -9 18 0 79 -73 73 -87 -2 -7 2 -13 10 -13 8 0 14 -3 13 -7 -4
-16 12 -74 19 -70 5 3 8 -26 8 -64 0 -38 -3 -69 -7 -69 -4 0 -6 -9 -5 -20 1
-11 4 -20 8 -20 4 0 5 -9 2 -20 -3 -11 -10 -20 -15 -20 -5 0 -7 -4 -4 -9 3 -5
-1 -12 -10 -15 -8 -3 -14 -14 -12 -23 2 -9 -9 -31 -25 -47 -15 -17 -25 -37
-22 -45 5 -12 3 -12 -11 0 -16 13 -17 11 -12 -13 3 -15 2 -25 -2 -23 -5 3 -22
-9 -40 -25 -18 -17 -38 -30 -46 -30 -8 0 -14 -4 -14 -8 0 -11 -51 -36 -67 -33
-7 1 -13 -2 -13 -7 0 -11 -6 -12 -113 -15 -48 -1 -87 1 -87 4 0 3 -11 5 -25 4
-14 -2 -25 1 -25 6 0 5 -7 9 -16 9 -8 0 -12 5 -9 10 6 9 -14 14 -42 11 -7 -1
-10 5 -7 13 3 9 -2 17 -15 21 -12 3 -21 11 -21 17 0 5 -7 8 -15 4 -9 -3 -15 0
-15 9 0 8 -4 15 -10 15 -5 0 -13 12 -16 27 -7 26 -13 35 -41 67 -7 8 -10 16
-7 19 4 3 2 12 -2 19 -5 7 -7 23 -5 36 1 12 -2 22 -8 22 -7 0 -7 8 0 27 5 14
7 33 4 40 -6 17 53 133 71 140 7 3 16 13 19 24 4 10 11 19 16 19 6 0 8 -4 5
-8 -3 -5 1 -9 9 -9 8 0 17 8 20 18 18 55 122 122 152 98 10 -9 12 -9 8 3 -4 9
0 15 9 15 11 0 14 -7 10 -24 -4 -14 -2 -23 5 -23 6 0 11 5 11 11 0 5 6 7 13 3
6 -4 9 -3 4 1 -9 10 41 65 60 65 7 0 10 -6 7 -15 -5 -11 -2 -13 10 -9 9 3 14
10 11 14 -3 5 12 11 32 13 21 2 41 4 46 5 4 1 7 -5 7 -13z m970 -20 c0 -8 -4
-15 -9 -15 -13 0 -22 16 -14 24 11 11 23 6 23 -9z m-3536 -4 c4 -5 -3 -7 -14
-4 -23 6 -26 13 -6 13 8 0 17 -4 20 -9z m3206 -5 c0 -3 -4 -8 -10 -11 -5 -3
-10 -1 -10 4 0 6 5 11 10 11 6 0 10 -2 10 -4z m-3493 -62 c-3 -3 -12 -4 -19
-1 -8 3 -5 6 6 6 11 1 17 -2 13 -5z m-207 -14 c18 -12 2 -12 -25 0 -13 6 -15
9 -5 9 8 0 22 -4 30 -9z m97 -26 c-3 -3 -12 -4 -19 -1 -8 3 -5 6 6 6 11 1 17
-2 13 -5z m43 -14 c0 -5 -2 -10 -4 -10 -3 0 -8 5 -11 10 -3 6 -1 10 4 10 6 0
11 -4 11 -10z m3937 -16 c-3 -3 -12 -4 -19 -1 -8 3 -5 6 6 6 11 1 17 -2 13 -5z
m-710 -136 c-2 -13 -4 -5 -4 17 -1 22 1 32 4 23 2 -10 2 -28 0 -40z m-3230 6
c-3 -3 -12 -4 -19 -1 -8 3 -5 6 6 6 11 1 17 -2 13 -5z m76 -11 c-7 -2 -21 -2
-30 0 -10 3 -4 5 12 5 17 0 24 -2 18 -5z m1647 -38 c0 -2 -5 -7 -12 -11 -7 -4
-8 -3 -4 4 6 11 -5 16 -26 14 -3 -1 -9 5 -12 13 -5 13 -2 13 24 0 17 -9 30
-17 30 -20z m1494 -29 c-3 -21 -8 -35 -11 -32 -2 2 -1 20 3 40 3 21 8 35 11
32 2 -2 1 -20 -3 -40z m-2816 -41 c0 -16 -2 -15 -8 5 -4 14 -8 34 -8 45 0 16
2 15 8 -5 4 -14 8 -34 8 -45z m1302 9 c0 -2 -9 0 -20 6 -11 6 -20 13 -20 16 0
2 9 0 20 -6 11 -6 20 -13 20 -16z m-1331 -24 c0 -10 -3 -8 -9 5 -12 27 -12 43
0 25 5 -8 9 -22 9 -30z m1521 10 c3 0 -3 -5 -13 -11 -18 -10 -37 -5 -37 12 0
7 12 7 50 -1z m1306 -26 c-4 -9 -9 -15 -11 -12 -3 3 -3 13 1 22 4 9 9 15 11
12 3 -3 3 -13 -1 -22z m624 -23 c0 -5 -11 -11 -25 -13 -14 -3 -25 -3 -25 -1 0
3 34 19 48 22 1 1 2 -3 2 -8z m-96 -9 c2 -4 -5 -9 -17 -9 -17 -2 -19 0 -7 7
18 12 18 12 24 2z m285 -11 c16 -11 7 -16 -41 -25 -31 -6 -39 -3 -48 14 -10
19 -8 20 32 20 24 0 49 -4 57 -9z m-4484 -41 c3 -5 -3 -10 -15 -10 -12 0 -18
5 -15 10 3 6 10 10 15 10 5 0 12 -4 15 -10z m4095 -2 c0 -5 -21 -8 -46 -8 -25
0 -43 4 -40 8 6 11 86 10 86 0z m-3550 -8 c-8 -5 -22 -10 -30 -10 -13 0 -13 1
0 10 8 5 22 10 30 10 13 0 13 -1 0 -10z m3593 3 c-7 -2 -19 -2 -25 0 -7 3 -2
5 12 5 14 0 19 -2 13 -5z m302 -3 c-11 -5 -27 -9 -35 -9 -13 -1 -13 0 0 9 8 5
24 9 35 9 l20 0 -20 -9z m-4446 -29 c9 -16 7 -17 -17 -13 -19 4 -22 7 -9 10 9
2 15 8 12 13 -4 5 -4 9 -1 9 3 0 10 -8 15 -19z m41 -1 c8 -5 11 -10 5 -10 -5
0 -17 5 -25 10 -8 5 -10 10 -5 10 6 0 17 -5 25 -10z m1784 -30 c-6 -5 -24 21
-24 34 0 6 6 1 14 -10 8 -10 12 -21 10 -24z m2636 31 c0 -5 -11 -11 -25 -13
-24 -5 -32 2 -18 15 9 10 43 8 43 -2z m-4415 -31 c3 -6 -1 -7 -9 -4 -18 7 -21
14 -7 14 6 0 13 -4 16 -10z m621 -16 c-10 -7 -23 -11 -27 -8 -5 3 -14 2 -21
-2 -17 -11 -88 -14 -88 -5 0 11 48 23 60 16 6 -3 16 -2 24 2 8 4 27 9 43 10
26 1 26 0 9 -13z m3864 7 c0 -10 -26 -9 -36 2 -4 4 2 7 14 7 12 0 22 -4 22 -9z
m90 -17 c0 -2 -7 -4 -15 -4 -8 0 -15 4 -15 10 0 5 7 7 15 4 8 -4 15 -8 15 -10z
m-4613 0 c-3 -3 -12 -4 -19 -1 -8 3 -5 6 6 6 11 1 17 -2 13 -5z m2908 -4 c3
-5 1 -10 -4 -10 -6 0 -11 5 -11 10 0 6 2 10 4 10 3 0 8 -4 11 -10z m1652 4
c-3 -3 -12 -4 -19 -1 -8 3 -5 6 6 6 11 1 17 -2 13 -5z m-4507 -13 c0 -12 -20
-25 -27 -18 -7 7 6 27 18 27 5 0 9 -4 9 -9z m4468 -3 c-2 -6 -10 -13 -16 -14
-7 -1 -8 0 -2 3 5 2 8 9 4 14 -3 5 0 9 6 9 7 0 10 -5 8 -12z m-1590 -33 c-3
-3 -9 2 -12 12 -6 14 -5 15 5 6 7 -7 10 -15 7 -18z m1232 21 c0 -2 -7 -7 -16
-10 -8 -3 -12 -2 -9 4 6 10 25 14 25 6z m416 -33 c-7 -7 -26 7 -26 19 0 6 6 6
15 -2 9 -7 13 -15 11 -17z m-706 -17 c0 -3 -4 -8 -10 -11 -5 -3 -10 -1 -10 4
0 6 5 11 10 11 6 0 10 -2 10 -4z m34 -4 c3 -5 -1 -9 -9 -9 -8 0 -12 4 -9 9 3
4 7 8 9 8 2 0 6 -4 9 -8z m186 -15 c14 -1 23 -6 22 -12 -2 -5 -9 -9 -14 -7 -9
3 -47 6 -160 15 -10 1 -18 5 -18 11 0 5 29 6 73 2 39 -4 83 -8 97 -9z m-1130
-25 c0 -15 -2 -15 -10 -2 -13 20 -13 33 0 25 6 -3 10 -14 10 -23z m-2360 13
c0 -2 -10 -9 -22 -15 -22 -11 -22 -10 -4 4 21 17 26 19 26 11z m892 -54 c-9
-16 -18 -28 -20 -27 -5 6 21 56 29 56 5 0 0 -13 -9 -29z m-997 3 c-11 -8 -27
-21 -37 -28 -9 -8 -19 -12 -22 -9 -3 4 9 16 27 29 35 25 65 33 32 8z m2832
-10 c-3 -3 -12 -4 -19 -1 -8 3 -5 6 6 6 11 1 17 -2 13 -5z m-197 -41 c-1 -27
-1 -27 -15 -9 -12 16 -12 22 -2 28 17 11 17 11 17 -19z m-2710 8 c0 -6 -4 -13
-10 -16 -5 -3 -10 1 -10 9 0 9 5 16 10 16 6 0 10 -4 10 -9z m940 -16 c-7 -9
-15 -13 -17 -11 -7 7 7 26 19 26 6 0 6 -6 -2 -15z m1825 -15 c9 -16 13 -30 11
-30 -3 0 -12 14 -21 30 -9 17 -13 30 -11 30 3 0 12 -13 21 -30z m-1905 -20
c-12 -17 -24 -29 -27 -26 -3 3 5 19 17 36 12 17 24 29 27 26 3 -3 -5 -19 -17
-36z m-610 21 c0 -5 -26 -15 -57 -22 -32 -7 -65 -14 -73 -16 -8 -2 -37 -6 -65
-8 -27 -2 -51 -4 -52 -4 -2 -1 -6 -1 -10 -2 -5 -1 -16 -5 -27 -11 -14 -7 -17
-7 -14 3 4 13 96 41 109 34 4 -3 20 0 35 5 16 6 56 14 89 19 33 5 61 9 63 10
1 0 2 -3 2 -8z m30 -1 c0 -5 -4 -10 -10 -10 -5 0 -10 5 -10 10 0 6 5 10 10 10
6 0 10 -4 10 -10z m104 -5 c-22 -17 -34 -19 -34 -6 0 5 8 12 18 14 32 9 36 7
16 -8z m-47 -21 c-3 -3 -12 -4 -19 -1 -8 3 -5 6 6 6 11 1 17 -2 13 -5z m366
-14 c-9 -11 -19 -17 -21 -15 -6 6 18 35 29 35 5 0 1 -9 -8 -20z m-193 6 c0 -3
-4 -8 -10 -11 -5 -3 -10 -1 -10 4 0 6 5 11 10 11 6 0 10 -2 10 -4z m-30 -20
c0 -2 -8 -10 -17 -17 -16 -13 -17 -12 -4 4 13 16 21 21 21 13z m-510 -30 c0
-2 -8 -10 -17 -17 -16 -13 -17 -12 -4 4 13 16 21 21 21 13z m1149 -38 c-18
-18 -27 -24 -19 -13 27 38 43 55 48 50 3 -2 -10 -19 -29 -37z m967 21 c0 -17
-1 -17 -21 -1 -11 9 -21 17 -23 18 -2 1 8 2 20 2 16 0 24 -6 24 -19z m762 -14
c-3 -3 -9 2 -12 12 -6 14 -5 15 5 6 7 -7 10 -15 7 -18z m-3143 5 c-3 -5 -12
-10 -18 -10 -7 0 -6 4 3 10 19 12 23 12 15 0z m2295 0 c0 -5 -5 -10 -11 -10
-5 0 -7 5 -4 10 3 6 8 10 11 10 2 0 4 -4 4 -10z m-2400 -10 c18 -12 2 -12 -25
0 -13 6 -15 9 -5 9 8 0 22 -4 30 -9z m370 3 c0 -5 -13 -17 -28 -27 l-27 -19
24 26 c26 28 31 32 31 20z m654 -18 c-9 -14 -18 -25 -21 -25 -5 0 5 18 20 38
17 22 18 13 1 -13z m3641 -4 c-1 -8 -7 -17 -15 -19 -15 -5 -33 20 -19 29 18
11 37 6 34 -10z m-2189 -6 c-3 -8 -1 -15 3 -15 5 0 11 -7 14 -14 4 -10 1 -13
-8 -10 -16 7 -27 32 -19 45 9 15 17 10 10 -6z m1415 -51 c17 -8 29 -18 26 -20
-6 -6 -95 35 -103 47 -6 10 31 -3 77 -27z m-2981 16 c0 -5 -5 -10 -11 -10 -5
0 -7 5 -4 10 3 6 8 10 11 10 2 0 4 -4 4 -10z m3713 -5 c-3 -9 -8 -14 -10 -11
-3 3 -2 9 2 15 9 16 15 13 8 -4z m-3623 -9 c0 -2 -7 -7 -16 -10 -8 -3 -12 -2
-9 4 6 10 25 14 25 6z m1490 -29 c0 -5 -4 -5 -10 -2 -5 3 -10 14 -10 23 0 15
2 15 10 2 5 -8 10 -19 10 -23z m951 -3 c23 -25 23 -26 2 -13 -13 7 -25 19 -27
26 -8 19 -2 16 25 -13z m-3041 1 c-7 -9 -15 -13 -17 -11 -7 7 7 26 19 26 6 0
6 -6 -2 -15z m4160 -6 c0 -6 10 -19 23 -30 12 -10 16 -18 10 -19 -7 0 -13 4
-13 10 0 5 -7 7 -15 4 -8 -4 -15 -2 -16 2 0 5 -2 19 -5 32 -2 14 0 21 6 17 5
-3 10 -11 10 -16z m-3635 1 c-3 -5 -12 -10 -18 -10 -7 0 -6 4 3 10 19 12 23
12 15 0z m528 -19 c2 -10 1 -25 -4 -32 -6 -10 -9 -4 -9 19 0 36 5 42 13 13z
m1787 -11 c8 -5 11 -10 5 -10 -5 0 -17 5 -25 10 -8 5 -10 10 -5 10 6 0 17 -5
25 -10z m-2100 -40 c-17 -22 -37 -43 -43 -47 -11 -6 4 15 47 65 33 37 30 25
-4 -18z m-1150 -10 c0 -5 -5 -10 -11 -10 -5 0 -7 5 -4 10 3 6 8 10 11 10 2 0
4 -4 4 -10z m1367 -22 c-3 -8 -6 -5 -6 6 -1 11 2 17 5 13 3 -3 4 -12 1 -19z
m33 8 c0 -3 -4 -8 -10 -11 -5 -3 -10 -1 -10 4 0 6 5 11 10 11 6 0 10 -2 10 -4z
m-1387 -32 c32 -4 60 -11 63 -15 8 -13 -45 -11 -96 5 -25 7 -51 11 -57 9 -7
-3 -13 1 -13 7 0 8 9 10 23 6 13 -3 49 -8 80 -12z m2564 -6 c-3 -8 -6 -5 -6 6
-1 11 2 17 5 13 3 -3 4 -12 1 -19z m886 -3 c-3 -9 -8 -14 -10 -11 -3 3 -2 9 2
15 9 16 15 13 8 -4z m-2298 -5 c-3 -5 -10 -10 -16 -10 -5 0 -9 5 -9 10 0 6 7
10 16 10 8 0 12 -4 9 -10z m2456 -7 c13 -16 12 -17 -3 -4 -17 13 -22 21 -14
21 2 0 10 -8 17 -17z m-2656 -3 c3 -5 -1 -10 -10 -10 -9 0 -13 5 -10 10 3 6 8
10 10 10 2 0 7 -4 10 -10z m43 -7 c-10 -2 -18 -9 -18 -14 0 -5 -10 -8 -22 -8
-17 1 -19 2 -5 6 9 2 17 9 17 14 0 5 10 8 23 8 16 -1 18 -2 5 -6z m142 -18
c-25 -14 -56 -32 -70 -41 l-25 -16 25 21 c29 25 90 60 105 60 6 0 -10 -11 -35
-24z m1427 3 c-3 -8 -6 -5 -6 6 -1 11 2 17 5 13 3 -3 4 -12 1 -19z m908 12 c3
-5 1 -10 -4 -10 -6 0 -11 5 -11 10 0 6 2 10 4 10 3 0 8 -4 11 -10z m95 0 c0
-5 -2 -10 -4 -10 -3 0 -8 5 -11 10 -3 6 -1 10 4 10 6 0 11 -4 11 -10z m-1033
-22 c-3 -8 -6 -5 -6 6 -1 11 2 17 5 13 3 -3 4 -12 1 -19z m1119 -5 c17 -27 17
-28 -1 -13 -17 14 -18 13 -12 -2 9 -26 2 -22 -18 8 -9 15 -12 23 -6 20 6 -4
11 -2 11 3 0 17 6 13 26 -16z m-2786 13 c0 -2 -7 -7 -16 -10 -8 -3 -12 -2 -9
4 6 10 25 14 25 6z m57 -2 c-3 -3 -12 -4 -19 -1 -8 3 -5 6 6 6 11 1 17 -2 13
-5z m83 -19 c-7 -8 -18 -15 -24 -15 -6 0 -31 -22 -56 -48 -25 -27 -37 -38 -26
-26 21 26 29 83 12 86 -6 1 14 4 44 8 30 4 57 7 59 8 2 1 -2 -5 -9 -13z m1500
5 c0 -5 -2 -10 -4 -10 -3 0 -8 5 -11 10 -3 6 -1 10 4 10 6 0 11 -4 11 -10z
m981 -37 c-9 -15 -10 -12 -10 17 0 29 1 32 10 18 7 -12 7 -24 0 -35z m85 24
c2 -15 0 -15 -22 0 -29 19 -30 20 -2 18 12 -1 22 -9 24 -18z m1001 3 c14 -11
22 -20 17 -20 -12 1 -61 39 -51 40 5 0 20 -9 34 -20z m-1990 4 c-3 -3 -12 -4
-19 -1 -8 3 -5 6 6 6 11 1 17 -2 13 -5z m-1287 -19 c-7 -9 -15 -13 -17 -11 -7
7 7 26 19 26 6 0 6 -6 -2 -15z m2233 2 c54 -59 57 -64 42 -64 -8 0 -15 5 -15
11 0 5 -12 23 -27 38 -15 15 -23 28 -19 28 4 0 13 -6 19 -13z m-3588 -7 c-3
-5 -12 -7 -20 -3 -21 7 -19 13 6 13 11 0 18 -4 14 -10z m1065 -10 c-6 -11 -15
-19 -20 -17 -5 1 -16 -7 -25 -18 -13 -16 -13 -14 1 12 10 19 21 28 25 22 4 -7
8 -5 12 5 4 9 9 16 12 16 3 0 1 -9 -5 -20z m2505 1 c3 -5 1 -12 -5 -16 -5 -3
-10 1 -10 9 0 18 6 21 15 7z m1050 -1 c3 -6 -1 -7 -9 -4 -18 7 -21 14 -7 14 6
0 13 -4 16 -10z m-3525 -4 c0 -2 -7 -9 -15 -16 -13 -11 -14 -10 -9 4 5 14 24
23 24 12z m-120 -9 c0 -2 -10 -12 -22 -23 -12 -10 -18 -13 -14 -6 4 7 2 12 -6
12 -9 0 -9 3 2 10 15 9 40 14 40 7z m1640 -27 c0 -5 -5 -10 -11 -10 -5 0 -7 5
-4 10 3 6 8 10 11 10 2 0 4 -4 4 -10z m-1485 -10 c-3 -5 -13 -10 -21 -10 -8 0
-12 5 -9 10 3 6 13 10 21 10 8 0 12 -4 9 -10z m-1160 -20 c-3 -5 -13 -10 -21
-10 -8 0 -12 5 -9 10 3 6 13 10 21 10 8 0 12 -4 9 -10z m48 3 c-7 -2 -19 -2
-25 0 -7 3 -2 5 12 5 14 0 19 -2 13 -5z m3778 -36 c-10 -9 -11 -8 -5 6 3 10 9
15 12 12 3 -3 0 -11 -7 -18z m-3850 -10 c-10 -9 -11 -8 -5 6 3 10 9 15 12 12
3 -3 0 -11 -7 -18z m4783 -11 l-28 -34 -18 23 c-23 30 -23 38 1 23 15 -9 24
-8 43 5 32 22 32 21 2 -17z m-2067 2 c-3 -8 -6 -5 -6 6 -1 11 2 17 5 13 3 -3
4 -12 1 -19z m1938 -68 c-4 -13 5 -21 32 -32 l38 -15 -32 1 c-17 1 -30 2 -28
4 1 2 -9 16 -23 32 -14 16 -26 38 -27 50 -2 20 -1 20 22 -2 14 -13 21 -29 18
-38z m-1625 6 c0 -26 -6 -18 -14 19 -5 22 -4 26 4 15 5 -8 10 -24 10 -34z
m-470 10 c0 -1 -4 -16 -9 -32 -5 -16 -12 -41 -15 -56 -10 -44 -24 -33 -16 12
4 22 6 40 3 40 -2 0 1 9 7 20 9 17 30 28 30 16z m31 -49 c-10 -43 -41 -107
-52 -107 -14 0 -11 17 6 33 7 8 17 28 21 43 7 30 22 64 28 64 2 0 1 -15 -3
-33z m119 13 c0 -5 -2 -10 -4 -10 -3 0 -8 5 -11 10 -3 6 -1 10 4 10 6 0 11 -4
11 -10z m167 -172 c-2 -24 -4 -7 -4 37 0 44 2 63 4 43 2 -21 2 -57 0 -80z
m1723 -41 c0 -5 -4 -5 -10 -2 -5 3 -10 14 -10 23 0 15 2 15 10 2 5 -8 10 -19
10 -23z m-1847 -24 c-4 -10 -2 -14 5 -9 6 3 13 2 16 -3 4 -5 -2 -8 -11 -6 -10
2 -21 4 -25 4 -3 1 -4 10 -1 21 3 11 9 17 14 15 4 -3 5 -13 2 -22z m-2447 -35
c4 -6 3 -8 -3 -5 -6 4 -22 -2 -36 -13 -32 -25 -53 -26 -28 -1 30 30 56 37 67
19z m2231 -65 c-3 -10 -5 -4 -5 12 0 17 2 24 5 18 2 -7 2 -21 0 -30z m441 23
c-2 -1 -12 -8 -22 -16 -18 -14 -19 -14 -7 8 7 12 17 20 22 16 6 -3 9 -7 7 -8z
m-2708 -36 c0 -5 -5 -10 -11 -10 -5 0 -7 5 -4 10 3 6 8 10 11 10 2 0 4 -4 4
-10z m2257 -42 c-3 -7 -5 -2 -5 12 0 14 2 19 5 13 2 -7 2 -19 0 -25z m2023 4
c0 -15 -2 -15 -10 -2 -13 20 -13 33 0 25 6 -3 10 -14 10 -23z m-60 -94 c0 -28
-2 -49 -5 -46 -10 9 -13 108 -4 102 5 -3 9 -28 9 -56z m74 36 c3 -8 2 -12 -4
-9 -6 3 -10 10 -10 16 0 14 7 11 14 -7z m-4177 -16 c-3 -8 -6 -5 -6 6 -1 11 2
17 5 13 3 -3 4 -12 1 -19z m2120 -20 c-3 -7 -5 -2 -5 12 0 14 2 19 5 13 2 -7
2 -19 0 -25z m-2147 -55 c-11 -17 -11 -17 -6 0 3 10 7 28 7 40 2 22 2 22 6 0
2 -12 -1 -30 -7 -40z m-50 23 c0 -2 -8 -10 -17 -17 -16 -13 -17 -12 -4 4 13
16 21 21 21 13z m150 -72 c0 -24 -3 -44 -8 -44 -4 0 -7 22 -7 49 0 27 3 47 8
44 4 -2 7 -24 7 -49z m3890 21 c0 -5 -5 -3 -10 5 -5 8 -10 20 -10 25 0 6 5 3
10 -5 5 -8 10 -19 10 -25z m-3993 -42 c-3 -10 -5 -4 -5 12 0 17 2 24 5 18 2
-7 2 -21 0 -30z m33 -37 c0 -3 -4 -8 -10 -11 -5 -3 -10 -1 -10 4 0 6 5 11 10
11 6 0 10 -2 10 -4z m2327 -28 c-3 -7 -5 -2 -5 12 0 14 2 19 5 13 2 -7 2 -19
0 -25z m153 2 c0 -5 -2 -10 -4 -10 -3 0 -8 5 -11 10 -3 6 -1 10 4 10 6 0 11
-4 11 -10z m1207 -42 c-3 -7 -5 -2 -5 12 0 14 2 19 5 13 2 -7 2 -19 0 -25z
m-50 -10 c-3 -8 -6 -5 -6 6 -1 11 2 17 5 13 3 -3 4 -12 1 -19z m-3384 -13 c-3
-9 -8 -14 -10 -11 -3 3 -2 9 2 15 9 16 15 13 8 -4z m3354 -27 c-3 -7 -5 -2 -5
12 0 14 2 19 5 13 2 -7 2 -19 0 -25z m-30 0 c-3 -8 -6 -5 -6 6 -1 11 2 17 5
13 3 -3 4 -12 1 -19z m-87 -42 c0 -5 -7 -1 -15 10 -8 10 -14 24 -14 29 0 6 6
1 14 -9 8 -11 15 -24 15 -30z m-3287 9 c-3 -9 -8 -14 -10 -11 -3 3 -2 9 2 15
9 16 15 13 8 -4z m3282 -66 c11 -17 2 -18 -19 -3 -17 12 -17 14 -4 14 9 0 20
-5 23 -11z m-274 -196 c13 -15 16 -21 7 -14 -10 7 -18 10 -18 6 0 -4 -7 -2
-15 5 -8 7 -12 16 -9 21 7 12 8 12 35 -18z m-2271 -47 c0 -3 -4 -8 -10 -11 -5
-3 -10 -1 -10 4 0 6 5 11 10 11 6 0 10 -2 10 -4z m120 -49 c0 -2 -10 -12 -22
-23 l-23 -19 19 23 c18 21 26 27 26 19z m2096 -44 c4 -13 4 -27 0 -30 -3 -4
-6 2 -6 12 0 10 -8 27 -17 37 -16 18 -16 18 0 12 10 -3 20 -17 23 -31z m-69
-35 c-3 -8 -6 -5 -6 6 -1 11 2 17 5 13 3 -3 4 -12 1 -19z m-16 -25 c13 -16 12
-17 -3 -4 -17 13 -22 21 -14 21 2 0 10 -8 17 -17z m-33 -58 c-3 -3 -9 2 -12
12 -6 14 -5 15 5 6 7 -7 10 -15 7 -18z m-487 -102 c13 -16 12 -17 -3 -4 -17
13 -22 21 -14 21 2 0 10 -8 17 -17z m-22 -83 c-5 -4 -7 -15 -3 -25 5 -13 4
-16 -4 -11 -7 4 -12 1 -12 -9 0 -11 -5 -15 -15 -11 -8 3 -15 1 -15 -5 0 -6 -7
-8 -16 -5 -12 5 -15 2 -10 -9 4 -11 2 -14 -7 -9 -43 25 -63 64 -32 64 8 0 23
9 34 21 16 18 22 19 43 8 l23 -12 -20 23 -20 23 32 -18 c18 -11 28 -22 22 -25z
m52 23 c13 -16 12 -17 -3 -4 -17 13 -22 21 -14 21 2 0 10 -8 17 -17z m-381
-13 c14 -26 4 -43 -22 -34 -14 4 -18 2 -14 -5 4 -6 1 -14 -8 -17 -9 -3 -12
-13 -9 -22 5 -15 4 -15 -9 -2 -22 22 -31 77 -13 84 7 2 16 0 18 -7 3 -8 7 -6
12 6 10 23 32 22 45 -3z m-99 -17 c12 -14 12 -16 0 -8 -11 6 -13 4 -8 -9 4
-10 3 -15 -3 -11 -9 6 -15 45 -6 45 2 0 10 -8 17 -17z m-26 -33 c3 -6 -1 -7
-9 -4 -18 7 -21 14 -7 14 6 0 13 -4 16 -10z m310 1 c-3 -5 6 -18 20 -29 27
-22 31 -37 13 -48 -7 -4 -8 -3 -4 4 4 7 -4 23 -19 38 -22 21 -26 44 -9 44 3 0
3 -4 -1 -9z m0 -41 c3 -5 1 -10 -4 -10 -6 0 -11 5 -11 10 0 6 2 10 4 10 3 0 8
-4 11 -10z m5 -36 c0 -2 -9 0 -20 6 -11 6 -20 13 -20 16 0 2 9 0 20 -6 11 -6
20 -13 20 -16z"/>
<path d="M1515 3137 c-91 -42 -168 -212 -96 -212 20 0 26 8 37 45 27 93 114
139 192 102 37 -16 52 -45 52 -96 0 -45 23 -75 47 -60 14 8 19 26 21 72 4 76
-14 113 -65 138 -48 23 -148 29 -188 11z"/>
<path d="M3705 3240 c3 -5 8 -10 11 -10 2 0 4 5 4 10 0 6 -5 10 -11 10 -5 0
-7 -4 -4 -10z"/>
<path d="M3424 3225 c-4 -11 -9 -23 -11 -27 -6 -11 9 -10 26 1 10 6 11 13 3
27 -10 18 -11 18 -18 -1z"/>
<path d="M3675 3230 c-3 -5 1 -10 10 -10 9 0 13 5 10 10 -3 6 -8 10 -10 10 -2
0 -7 -4 -10 -10z"/>
<path d="M3485 3124 c-56 -21 -88 -56 -120 -130 -25 -59 -26 -67 -12 -81 21
-21 33 -11 67 58 36 70 61 89 132 96 69 6 84 -6 106 -87 15 -58 20 -65 45 -68
23 -3 27 0 27 20 0 44 -28 139 -46 160 -42 47 -123 60 -199 32z"/>
<path d="M4820 1806 c0 -2 8 -10 18 -17 15 -13 16 -12 3 4 -13 16 -21 21 -21
13z"/>
<path d="M4241 4063 c-1 -6 -4 -20 -7 -30 -5 -17 -5 -17 6 0 6 10 9 23 6 30
-3 9 -5 9 -5 0z"/>
<path d="M4140 3963 c0 -43 5 -41 13 5 4 18 2 32 -3 32 -6 0 -10 -16 -10 -37z"/>
<path d="M1396 3951 c-3 -5 1 -11 9 -14 9 -4 12 -1 8 9 -6 16 -10 17 -17 5z"/>
<path d="M3787 3913 c-4 -3 -7 -11 -7 -17 0 -6 5 -5 12 2 6 6 9 14 7 17 -3 3
-9 2 -12 -2z"/>
<path d="M3860 3870 c0 -5 5 -10 11 -10 5 0 7 5 4 10 -3 6 -8 10 -11 10 -2 0
-4 -4 -4 -10z"/>
<path d="M3975 3795 l-29 -24 29 3 c21 2 29 9 30 25 1 11 1 21 1 21 -1 -1 -14
-12 -31 -25z"/>
<path d="M3703 3663 c3 -5 -12 -7 -32 -7 -38 2 -139 -20 -150 -32 -3 -4 14 -3
39 1 25 5 61 8 80 7 19 -1 62 3 95 10 50 10 56 13 35 19 -35 10 -72 11 -67 2z"/>
<path d="M1219 3641 c34 -13 59 -17 69 -12 13 7 12 9 -4 14 -10 3 -41 9 -69
12 l-50 6 54 -20z"/>
<path d="M1767 3649 c7 -7 15 -10 18 -7 3 3 -2 9 -12 12 -14 6 -15 5 -6 -5z"/>
<path d="M1370 3640 c14 -4 32 -8 40 -9 13 -1 13 0 0 9 -8 5 -26 9 -40 9 l-25
-1 25 -8z"/>
<path d="M3356 3587 c-15 -11 -12 -12 23 -9 23 2 38 8 35 13 -8 13 -37 11 -58
-4z"/>
<path d="M3655 3570 c-8 -13 5 -13 25 0 13 8 13 10 -2 10 -9 0 -20 -4 -23 -10z"/>
<path d="M1908 3548 c5 -5 16 -8 23 -6 8 3 3 7 -10 11 -17 4 -21 3 -13 -5z"/>
<path d="M1688 3538 c6 -6 18 -8 28 -6 14 3 12 5 -9 10 -19 3 -25 2 -19 -4z"/>
<path d="M3220 3520 l-25 -8 25 0 c14 0 36 4 50 8 l25 8 -25 0 c-14 0 -36 -4
-50 -8z"/>
<path d="M1745 3480 c3 -6 25 -15 49 -21 30 -7 48 -19 60 -40 9 -16 32 -36 49
-45 18 -9 43 -26 57 -38 14 -11 8 -4 -15 17 -22 21 -56 53 -75 72 -20 19 -55
41 -79 50 -51 18 -54 18 -46 5z"/>
<path d="M2359 3463 c-13 -16 -12 -17 4 -4 9 7 17 15 17 17 0 8 -8 3 -21 -13z"/>
<path d="M3170 3440 c-9 -6 -10 -10 -3 -10 6 0 15 5 18 10 8 12 4 12 -15 0z"/>
<path d="M2322 3387 c-13 -15 -4 -60 9 -51 5 3 9 -1 9 -10 0 -9 8 -13 26 -11
23 2 24 1 11 -12 -13 -13 -18 -13 -44 1 -28 14 -30 14 -29 -2 1 -9 8 -28 15
-42 12 -22 12 -23 0 -13 -12 9 -14 4 -13 -30 2 -49 13 -79 25 -71 5 3 9 -1 9
-8 0 -10 2 -10 9 1 6 9 5 24 0 39 -5 14 -8 27 -5 29 2 3 10 -12 17 -31 13 -37
23 -44 34 -26 4 7 12 7 25 0 31 -16 42 -13 30 9 -7 13 -7 22 0 26 9 6 14 -1
11 -17 0 -4 6 -5 15 -1 13 5 13 9 -5 27 -18 17 -23 18 -30 7 -7 -11 -11 -10
-20 7 -8 15 -8 23 1 28 7 4 8 3 4 -4 -11 -18 0 -14 15 5 12 14 12 16 0 8 -11
-6 -13 -4 -7 10 6 18 6 18 -15 -1 -12 -10 -19 -14 -16 -8 8 13 -16 37 -26 27
-4 -3 -7 -1 -7 6 0 6 7 14 15 17 10 4 13 13 9 27 -5 15 -3 19 9 14 25 -9 -4
40 -31 53 -30 13 -37 13 -50 -3z"/>
<path d="M3201 3317 c-13 -21 -12 -21 5 -5 10 10 16 20 13 22 -3 3 -11 -5 -18
-17z"/>
<path d="M2485 3236 c-16 -11 -16 -14 -2 -19 8 -3 21 0 27 8 15 19 -3 27 -25
11z"/>
<path d="M2516 3211 c-4 -7 -5 -15 -2 -18 9 -9 19 4 14 18 -4 11 -6 11 -12 0z"/>
<path d="M2001 3183 c7 -12 15 -20 18 -17 3 2 -3 12 -13 22 -17 16 -18 16 -5
-5z"/>
<path d="M3083 3160 c-13 -5 -23 -16 -23 -24 0 -13 4 -13 30 0 46 24 40 43 -7
24z"/>
<path d="M2395 3139 c-9 -14 -2 -20 14 -10 8 6 9 11 3 15 -6 3 -14 1 -17 -5z"/>
<path d="M2200 3063 c13 -18 26 -30 29 -28 3 3 -8 18 -23 33 l-29 27 23 -32z"/>
<path d="M2296 3013 c4 -10 8 -32 8 -50 0 -18 3 -30 8 -27 15 10 9 81 -8 88
-13 5 -14 2 -8 -11z"/>
<path d="M2703 2975 c0 -8 4 -12 9 -9 5 3 6 10 3 15 -9 13 -12 11 -12 -6z"/>
<path d="M2160 2913 c0 -4 5 -15 10 -23 8 -13 10 -13 10 2 0 9 -4 20 -10 23
-5 3 -10 3 -10 -2z"/>
<path d="M2170 2854 c0 -14 27 -50 33 -44 3 3 -3 16 -13 30 -11 14 -20 20 -20
14z"/>
<path d="M2225 2810 c3 -5 11 -10 16 -10 6 0 7 5 4 10 -3 6 -11 10 -16 10 -6
0 -7 -4 -4 -10z"/>
<path d="M2851 2804 c0 -11 3 -14 6 -6 3 7 2 16 -1 19 -3 4 -6 -2 -5 -13z"/>
<path d="M2875 2800 c-3 -5 -1 -10 4 -10 6 0 11 5 11 10 0 6 -2 10 -4 10 -3 0
-8 -4 -11 -10z"/>
<path d="M2315 2759 c-4 -6 -5 -12 -2 -15 2 -3 7 2 10 11 7 17 1 20 -8 4z"/>
<path d="M2180 2691 c0 -12 5 -21 10 -21 6 0 10 6 10 14 0 8 -4 18 -10 21 -5
3 -10 -3 -10 -14z"/>
<path d="M2791 2694 c0 -11 3 -14 6 -6 3 7 2 16 -1 19 -3 4 -6 -2 -5 -13z"/>
<path d="M2861 2674 c0 -11 3 -14 6 -6 3 7 2 16 -1 19 -3 4 -6 -2 -5 -13z"/>
<path d="M2950 2671 c0 -12 6 -21 15 -21 8 0 15 4 15 9 0 5 -7 14 -15 21 -13
10 -15 9 -15 -9z"/>
<path d="M2357 2579 c7 -7 15 -10 18 -7 3 3 -2 9 -12 12 -14 6 -15 5 -6 -5z"/>
<path d="M320 2570 c-9 -6 -10 -10 -3 -10 6 0 15 5 18 10 8 12 4 12 -15 0z"/>
<path d="M2460 2570 c-8 -5 -18 -6 -22 -4 -4 3 -8 0 -8 -6 0 -7 7 -10 15 -6 8
3 15 0 15 -6 0 -9 3 -9 11 -1 16 16 8 35 -11 23z"/>
<path d="M2312 2549 c2 -6 7 -10 11 -10 4 1 15 1 25 1 14 0 15 2 2 10 -20 13
-43 13 -38 -1z"/>
<path d="M2740 2539 c0 -5 5 -7 10 -4 6 3 10 8 10 11 0 2 -4 4 -10 4 -5 0 -10
-5 -10 -11z"/>
<path d="M2430 2525 c0 -8 2 -15 4 -15 2 0 6 7 10 15 3 8 1 15 -4 15 -6 0 -10
-7 -10 -15z"/>
<path d="M2850 2529 c0 -5 5 -7 10 -4 6 3 10 8 10 11 0 2 -4 4 -10 4 -5 0 -10
-5 -10 -11z"/>
<path d="M2047 2524 c-4 -4 -7 -14 -7 -23 0 -11 3 -12 11 -4 6 6 10 16 7 23
-2 6 -7 8 -11 4z"/>
<path d="M2350 2502 c0 -10 3 -22 7 -26 10 -9 12 -47 5 -71 -5 -18 -6 -18 -12
5 -3 14 -15 26 -25 28 -16 3 -18 1 -7 -9 14 -15 16 -33 2 -24 -5 3 -10 1 -10
-4 0 -6 5 -11 12 -11 6 0 3 -7 -8 -15 -14 -10 -15 -14 -4 -15 11 0 11 -3 2
-12 -10 -10 -8 -16 7 -28 13 -9 23 -32 26 -60 l7 -45 -17 30 c-9 16 -14 37
-12 47 6 20 -8 25 -17 6 -3 -7 -4 -4 -3 6 1 10 -4 21 -12 24 -10 3 -12 0 -8
-12 4 -9 2 -16 -4 -16 -6 0 -7 -5 -4 -10 4 -7 -3 -8 -21 -4 -19 5 -25 4 -20
-5 4 -6 15 -11 24 -12 9 0 12 -3 6 -5 -15 -6 -6 -43 14 -66 8 -10 12 -18 8
-18 -11 0 24 -48 40 -54 9 -4 18 3 24 17 l9 22 0 -23 c1 -13 5 -20 11 -17 6 4
7 12 4 18 -5 8 -3 8 7 0 11 -11 15 -8 26 15 l13 27 -6 -34 c-4 -24 -3 -31 6
-26 13 8 10 76 -5 90 -6 6 -8 9 -6 8 9 -6 30 20 24 30 -3 5 5 18 18 28 15 12
19 19 10 19 -11 0 -9 4 5 15 11 8 14 15 7 15 -14 0 -18 30 -4 30 9 0 6 48 -3
57 -11 11 15 32 32 26 14 -6 15 -5 2 9 -8 9 -16 12 -18 7 -8 -22 -21 -6 -17
21 2 17 -1 30 -6 30 -9 0 -13 -14 -9 -40 1 -11 -2 -10 -13 4 -9 13 -19 16 -28
11 -12 -7 -12 -6 -1 7 10 13 9 17 -10 22 -38 10 -48 7 -48 -12z m85 -212 c-3
-5 -12 -10 -18 -10 -7 0 -6 4 3 10 19 12 23 12 15 0z"/>
<path d="M2310 2475 c0 -8 4 -15 10 -15 5 0 7 7 4 15 -4 8 -8 15 -10 15 -2 0
-4 -7 -4 -15z"/>
<path d="M348 2463 c6 -2 18 -2 25 0 6 3 1 5 -13 5 -14 0 -19 -2 -12 -5z"/>
<path d="M333 2443 c9 -2 25 -2 35 0 9 3 1 5 -18 5 -19 0 -27 -2 -17 -5z"/>
<path d="M2607 2443 c-11 -10 -8 -33 4 -33 6 0 9 6 6 14 -3 8 -1 17 6 20 7 3
8 5 1 5 -6 1 -14 -2 -17 -6z"/>
<path d="M2826 2391 c-4 -7 -5 -15 -2 -18 9 -9 19 4 14 18 -4 11 -6 11 -12 0z"/>
<path d="M2985 2360 c-3 -5 -1 -10 4 -10 6 0 11 5 11 10 0 6 -2 10 -4 10 -3 0
-8 -4 -11 -10z"/>
<path d="M2192 2340 c0 -14 2 -19 5 -12 2 6 2 18 0 25 -3 6 -5 1 -5 -13z"/>
<path d="M458 2343 c6 -2 18 -2 25 0 6 3 1 5 -13 5 -14 0 -19 -2 -12 -5z"/>
<path d="M2016 2335 c-9 -26 -7 -32 5 -12 6 10 9 21 6 23 -2 3 -7 -2 -11 -11z"/>
<path d="M2250 2309 c0 -5 5 -7 10 -4 6 3 10 8 10 11 0 2 -4 4 -10 4 -5 0 -10
-5 -10 -11z"/>
<path d="M2037 2295 c-4 -8 -3 -16 1 -19 4 -3 9 4 9 15 2 23 -3 25 -10 4z"/>
<path d="M2200 2307 c0 -4 7 -21 15 -36 8 -16 11 -31 8 -35 -4 -3 -1 -6 5 -6
7 0 12 3 12 8 -1 11 -39 78 -40 69z"/>
<path d="M4814 2291 c3 -5 15 -7 26 -4 28 7 25 13 -6 13 -14 0 -23 -4 -20 -9z"/>
<path d="M426 2258 c-29 -15 -35 -23 -27 -31 14 -14 48 4 44 22 -3 11 10 15
35 12 16 -2 16 5 -1 12 -7 2 -30 -4 -51 -15z"/>
<path d="M2076 2264 c-13 -33 -6 -49 9 -20 18 33 18 36 6 36 -5 0 -12 -7 -15
-16z"/>
<path d="M2171 2264 c0 -11 3 -14 6 -6 3 7 2 16 -1 19 -3 4 -6 -2 -5 -13z"/>
<path d="M4770 2271 c0 -10 51 -41 67 -41 9 1 -22 26 -49 41 -12 6 -18 6 -18
0z"/>
<path d="M2020 2261 c0 -5 5 -13 10 -16 6 -3 10 -2 10 4 0 5 -4 13 -10 16 -5
3 -10 2 -10 -4z"/>
<path d="M2445 2260 c-4 -7 3 -8 22 -4 38 9 42 14 10 14 -14 0 -29 -5 -32 -10z"/>
<path d="M3276 2253 c9 -27 47 -103 51 -103 6 0 -6 39 -23 77 -16 35 -37 55
-28 26z"/>
<path d="M2051 2244 c0 -11 3 -14 6 -6 3 7 2 16 -1 19 -3 4 -6 -2 -5 -13z"/>
<path d="M1892 2207 c-12 -23 -22 -46 -22 -52 0 -5 12 12 26 39 14 26 24 49
22 51 -2 2 -14 -15 -26 -38z"/>
<path d="M2440 2230 c0 -5 5 -10 11 -10 5 0 7 5 4 10 -3 6 -8 10 -11 10 -2 0
-4 -4 -4 -10z"/>
<path d="M4400 2236 c0 -2 7 -9 15 -16 13 -11 14 -10 9 4 -5 14 -24 23 -24 12z"/>
<path d="M614 2216 c-10 -8 -16 -17 -12 -21 7 -7 48 16 48 27 0 12 -14 9 -36
-6z"/>
<path d="M2171 2213 c8 -9 9 -14 4 -11 -6 4 -11 -1 -11 -11 0 -10 6 -18 13
-18 8 0 13 12 13 29 0 19 -5 28 -16 28 -14 0 -15 -2 -3 -17z"/>
<path d="M3330 2223 c0 -6 11 -27 25 -47 15 -23 25 -51 25 -73 0 -29 8 -43 39
-73 21 -20 41 -43 44 -51 4 -11 6 -11 6 1 1 21 -27 60 -44 60 -19 0 -24 11
-30 61 -5 37 -65 150 -65 122z"/>
<path d="M2089 2181 c-1 -20 -1 -39 0 -43 0 -5 -4 -8 -9 -8 -6 0 -8 12 -4 28
l6 27 -21 -25 c-14 -17 -21 -20 -21 -10 -2 25 -21 -29 -50 -138 -14 -57 -30
-102 -34 -102 -5 1 -17 -17 -28 -40 -11 -22 -24 -40 -29 -40 -4 0 -26 -26 -48
-58 -33 -49 -89 -111 -68 -75 4 6 3 14 -3 18 -6 4 -10 -7 -11 -27 0 -18 -3
-27 -6 -20 -2 6 -9 12 -14 12 -6 0 -5 -9 2 -21 11 -21 10 -22 -22 -15 -30 6
-32 5 -14 -8 17 -12 18 -17 7 -41 l-13 -28 27 17 c20 14 29 15 38 6 8 -8 6 -9
-9 -4 -18 7 -19 6 -5 -11 9 -11 10 -16 3 -11 -8 4 -13 2 -13 -5 0 -7 -8 -21
-17 -31 -12 -14 -14 -21 -6 -26 14 -9 71 -7 102 3 27 8 27 -8 -1 -39 -48 -51
-52 -58 -38 -66 10 -6 9 -9 -1 -13 -10 -4 -9 -6 3 -6 11 -1 16 -8 13 -21 -3
-16 1 -19 23 -16 15 1 46 12 70 24 23 11 40 16 36 11 -3 -5 3 -9 14 -9 16 0
18 -6 14 -57 -2 -32 -11 -70 -18 -85 -8 -15 -14 -35 -13 -45 0 -14 2 -15 6 -3
10 27 40 60 48 52 3 -4 5 -1 3 6 -2 8 8 21 22 30 l25 16 -19 -22 c-23 -27 -13
-28 22 -4 33 23 88 43 96 34 4 -3 -4 -12 -16 -20 -23 -13 -23 -13 5 -9 23 4
27 1 27 -19 0 -13 3 -23 8 -21 4 1 7 -3 7 -8 0 -6 -3 -9 -7 -8 -5 2 -8 -2 -8
-8 0 -6 6 -9 14 -6 17 7 23 -7 21 -50 0 -17 3 -29 7 -27 4 3 8 16 8 30 0 32
38 84 57 77 11 -4 10 -8 -3 -18 -11 -8 -13 -14 -6 -19 6 -3 13 -2 17 4 3 5 11
10 16 10 6 0 7 -4 4 -10 -4 -6 1 -7 11 -3 13 5 16 3 11 -9 -3 -9 0 -19 7 -21
9 -4 12 -15 9 -31 -5 -23 -2 -26 18 -24 20 3 24 -3 31 -42 5 -25 7 -66 5 -92
-2 -27 0 -49 6 -51 6 -2 13 -34 16 -73 6 -60 8 -65 15 -37 4 17 2 66 -3 108
-7 50 -8 83 -1 93 8 15 9 14 10 -5 0 -12 4 -25 10 -28 6 -4 8 17 5 57 -3 43
-2 53 4 33 9 -32 9 -32 34 46 14 42 13 58 -5 175 -11 71 -21 181 -23 244 -5
140 -11 205 -21 222 -5 7 -9 18 -9 23 -4 41 -19 94 -25 90 -12 -7 -40 41 -40
70 0 14 -5 25 -11 25 -5 0 -7 -4 -4 -10 8 -12 -5 -13 -24 -1 -9 6 -10 11 -2
15 6 4 9 11 6 16 -3 4 6 7 20 6 14 0 28 -9 31 -19 3 -9 14 -22 25 -27 10 -6
19 -21 20 -33 l0 -22 12 23 c8 17 8 35 0 63 -9 35 -9 38 5 27 24 -19 8 4 -35
51 -20 22 -40 38 -45 35 -5 -3 -12 3 -15 14 -3 11 -11 23 -19 26 -10 4 -13 -4
-10 -37 2 -23 2 -32 -1 -19 -2 12 -8 22 -13 22 -5 0 -7 6 -4 14 9 23 -35 99
-53 92 -11 -4 -14 -2 -9 9 3 8 1 15 -4 15 -4 0 -14 -16 -20 -35 -7 -22 -16
-33 -23 -29 -9 5 -9 4 0 -6 6 -7 9 -18 7 -25 -3 -7 0 -16 6 -20 6 -4 11 -1 9
6 -1 8 -1 23 0 34 1 16 3 17 11 5 5 -8 6 -17 2 -20 -4 -3 -6 -12 -6 -20 1 -8
2 -27 3 -42 0 -15 8 -33 16 -41 8 -8 11 -17 8 -21 -12 -11 -23 -6 -23 12 0 9
-9 31 -20 47 -17 25 -20 27 -20 10 -1 -26 -21 -59 -40 -63 -11 -3 -10 1 4 17
37 41 29 159 -10 144 -12 -4 -14 0 -9 19 5 18 2 25 -9 25 -11 0 -16 -11 -17
-36z m166 -85 c4 -24 2 -47 -3 -50 -5 -3 -7 7 -5 22 3 19 2 23 -5 14 -6 -10
-10 5 -10 45 -1 44 1 53 8 35 5 -12 12 -42 15 -66z m-179 -4 c-17 -16 -18 -16
-5 5 7 12 15 20 18 17 3 -2 -3 -12 -13 -22z m181 -109 c-3 -10 -5 -2 -5 17 0
19 2 27 5 18 2 -10 2 -26 0 -35z m-95 -5 c-8 -8 -9 -4 -5 13 4 13 8 18 11 10
2 -7 -1 -18 -6 -23z m38 -14 c0 -6 -6 -11 -13 -11 -9 0 -12 9 -9 25 3 17 7 20
13 10 5 -7 9 -18 9 -24z m-99 -17 c-10 -9 -11 -8 -5 6 3 10 9 15 12 12 3 -3 0
-11 -7 -18z m79 -74 c0 -26 -2 -44 -4 -42 -8 9 -13 98 -5 93 5 -3 9 -26 9 -51z
m-77 27 c-3 -12 -8 -19 -11 -16 -5 6 5 36 12 36 2 0 2 -9 -1 -20z m248 -17
c13 -16 12 -17 -3 -4 -10 7 -18 15 -18 17 0 8 8 3 21 -13z m-406 -63 c-5 -8
-11 -8 -17 -2 -6 6 -7 16 -3 22 5 8 11 8 17 2 6 -6 7 -16 3 -22z m423 -36 c-4
-3 -12 5 -18 18 -12 22 -12 22 6 6 10 -10 15 -20 12 -24z m-499 -33 c-19 -41
-39 -61 -39 -41 0 10 48 80 55 80 2 0 -5 -18 -16 -39z m418 7 c-3 -8 -6 -5 -6
6 -1 11 2 17 5 13 3 -3 4 -12 1 -19z m133 -28 c0 -5 -2 -10 -4 -10 -3 0 -8 5
-11 10 -3 6 -1 10 4 10 6 0 11 -4 11 -10z m-93 -22 c-3 -8 -6 -5 -6 6 -1 11 2
17 5 13 3 -3 4 -12 1 -19z m50 -80 c-3 -7 -5 -2 -5 12 0 14 2 19 5 13 2 -7 2
-19 0 -25z m-250 -50 c-3 -7 -5 -2 -5 12 0 14 2 19 5 13 2 -7 2 -19 0 -25z
m10 -55 c-3 -10 -5 -4 -5 12 0 17 2 24 5 18 2 -7 2 -21 0 -30z m-197 -9 c0 -8
-4 -12 -10 -9 -5 3 -10 13 -10 21 0 8 5 12 10 9 6 -3 10 -13 10 -21z m140
-205 c-7 -11 -14 -18 -17 -15 -3 3 0 12 7 21 18 21 23 19 10 -6z m347 -191
c-3 -8 -6 -5 -6 6 -1 11 2 17 5 13 3 -3 4 -12 1 -19z"/>
<path d="M2055 2200 c-3 -5 -1 -10 4 -10 6 0 11 5 11 10 0 6 -2 10 -4 10 -3 0
-8 -4 -11 -10z"/>
<path d="M4767 2179 c7 -7 15 -10 18 -7 3 3 -2 9 -12 12 -14 6 -15 5 -6 -5z"/>
<path d="M3118 2134 c10 -27 24 -48 30 -46 7 1 12 -5 12 -14 0 -9 -5 -12 -12
-8 -7 4 -3 -4 10 -18 12 -13 19 -27 16 -31 -9 -9 28 -87 42 -87 24 0 24 18 -1
34 -14 9 -25 21 -25 27 0 8 5 7 15 -1 12 -10 15 -9 15 4 0 10 -4 14 -10 11 -5
-3 -11 -1 -11 4 -1 6 -3 16 -4 21 -1 6 -3 17 -4 26 -1 9 -6 12 -13 8 -8 -5 -7
0 2 11 8 10 10 16 4 12 -7 -4 -15 0 -18 9 -8 22 -8 26 4 19 6 -4 7 1 3 11 -4
10 -8 13 -10 7 -5 -15 -33 -5 -33 12 0 7 -7 18 -15 25 -13 11 -12 4 3 -36z"/>
<path d="M2455 2160 c3 -5 11 -10 16 -10 6 0 7 5 4 10 -3 6 -11 10 -16 10 -6
0 -7 -4 -4 -10z"/>
<path d="M1949 2128 c4 -28 6 -29 9 -9 2 13 0 27 -5 32 -6 6 -7 -3 -4 -23z"/>
<path d="M3351 2133 c11 -34 19 -42 19 -20 0 7 -7 22 -15 33 -13 17 -14 16 -4
-13z"/>
<path d="M1810 2128 c-12 -22 -12 -22 6 -6 10 10 15 20 12 24 -4 3 -12 -5 -18
-18z"/>
<path d="M1879 2121 c-8 -17 -17 -31 -21 -31 -5 0 -8 -5 -8 -11 0 -6 8 -8 18
-5 12 4 11 1 -5 -13 -13 -11 -23 -27 -24 -38 0 -17 -1 -17 -8 1 -6 15 -10 11
-26 -23 -20 -46 -16 -61 9 -35 9 9 20 14 23 11 3 -4 -8 -14 -26 -24 -28 -16
-41 -33 -25 -33 14 0 64 35 64 45 0 6 6 17 12 23 12 12 41 152 34 160 -2 2
-10 -11 -17 -27z"/>
<path d="M544 2118 l-19 -23 23 19 c12 11 22 21 22 23 0 8 -8 2 -26 -19z"/>
<path d="M2683 2120 c4 -14 7 -34 7 -44 0 -26 13 -12 16 18 1 14 -5 31 -13 38
-15 11 -16 10 -10 -12z"/>
<path d="M1812 2093 c-12 -13 -25 -36 -28 -49 -3 -13 -11 -21 -17 -17 -6 4 -8
-4 -5 -20 3 -15 2 -24 -2 -22 -4 3 -10 -4 -13 -15 -10 -38 19 -20 41 26 13 27
17 43 10 39 -7 -4 -5 0 4 8 16 13 42 66 36 73 -2 1 -13 -9 -26 -23z"/>
<path d="M3342 2090 c0 -14 2 -19 5 -12 2 6 2 18 0 25 -3 6 -5 1 -5 -13z"/>
<path d="M4790 2098 c0 -4 4 -8 9 -8 6 0 12 4 15 8 3 5 -1 9 -9 9 -8 0 -15 -4
-15 -9z"/>
<path d="M1704 2073 c-10 -15 -27 -36 -38 -46 l-21 -18 22 10 c24 12 68 69 60
77 -3 3 -13 -7 -23 -23z"/>
<path d="M2410 2090 c0 -5 4 -10 9 -10 6 0 13 5 16 10 3 6 -1 10 -9 10 -9 0
-16 -4 -16 -10z"/>
<path d="M3280 2094 c0 -12 37 -54 47 -54 4 0 -4 12 -18 28 -13 15 -25 29 -26
31 -2 2 -3 0 -3 -5z"/>
<path d="M3410 2076 c0 -8 4 -17 9 -20 5 -4 7 3 4 14 -6 23 -13 26 -13 6z"/>
<path d="M3460 2078 c0 -9 4 -19 9 -22 5 -4 20 -36 33 -72 14 -40 31 -70 43
-75 19 -10 19 -9 1 5 -19 15 -13 42 7 29 14 -9 -20 48 -38 62 -6 6 -21 28 -33
50 -12 22 -21 32 -22 23z"/>
<path d="M1740 2064 c0 -8 -4 -13 -9 -10 -4 3 -6 -7 -4 -22 3 -16 1 -22 -4
-15 -6 8 -15 -1 -29 -27 -26 -47 -3 -50 25 -4 19 32 37 94 27 94 -3 0 -6 -7
-6 -16z"/>
<path d="M4856 2065 c10 -8 24 -14 29 -14 6 0 1 6 -9 14 -11 8 -24 15 -30 15
-5 0 -1 -7 10 -15z"/>
<path d="M1940 2047 c0 -13 -4 -27 -10 -33 -5 -5 -13 -38 -16 -72 -4 -34 -11
-59 -15 -56 -5 3 -9 -4 -9 -16 0 -12 -4 -19 -9 -15 -6 3 -15 -3 -20 -14 -6
-11 -17 -26 -23 -33 -47 -51 -53 -64 -10 -22 28 28 53 50 55 48 7 -8 31 27 44
65 15 41 29 171 19 171 -3 0 -6 -10 -6 -23z"/>
<path d="M570 2044 c-17 -11 -19 -13 -5 -9 11 4 25 8 32 9 19 3 28 16 12 16
-8 -1 -25 -8 -39 -16z"/>
<path d="M2670 2049 c0 -5 -4 -7 -10 -4 -14 9 -12 -1 3 -13 10 -8 13 -6 14 9
1 10 0 19 -3 19 -2 0 -4 -5 -4 -11z"/>
<path d="M3628 2029 c6 -9 8 -20 4 -24 -4 -5 -1 -5 6 -1 6 4 12 3 12 -3 0 -6
14 -17 30 -26 34 -18 40 -7 10 20 -11 10 -20 14 -20 10 0 -5 -12 2 -27 16 -15
13 -22 17 -15 8z"/>
<path d="M365 2017 c-18 -10 -24 -47 -9 -47 9 0 30 24 32 35 0 6 11 13 24 17
23 6 23 6 -2 7 -14 0 -34 -5 -45 -12z"/>
<path d="M575 2020 c-18 -8 -18 -9 5 -9 14 0 34 4 45 9 18 8 18 9 -5 9 -14 0
-34 -4 -45 -9z"/>
<path d="M3252 1970 c-2 -63 -1 -66 53 -102 22 -15 52 -39 68 -53 15 -14 27
-22 27 -17 0 5 -20 26 -45 47 -24 22 -47 46 -50 54 -5 11 -3 12 10 1 13 -11
16 -11 13 1 -5 21 -29 37 -49 32 -15 -4 -18 3 -22 43 l-3 49 -2 -55z"/>
<path d="M3370 2016 c0 -2 7 -7 16 -10 8 -3 12 -2 9 4 -6 10 -25 14 -25 6z"/>
<path d="M1660 1991 c-12 -24 -13 -34 -1 -27 9 6 22 46 15 46 -2 0 -8 -9 -14
-19z"/>
<path d="M3555 1980 c9 -16 18 -30 21 -30 2 0 -2 14 -11 30 -9 17 -18 30 -21
30 -2 0 2 -13 11 -30z"/>
<path d="M1470 1985 c-7 -8 -16 -13 -20 -10 -4 2 -15 -4 -25 -15 -12 -13 -14
-20 -6 -20 7 0 -1 -16 -19 -36 -17 -20 -28 -39 -25 -43 4 -3 13 3 21 14 18 26
38 52 70 93 25 31 29 47 4 17z m-27 -30 c-3 -9 -8 -14 -10 -11 -3 3 -2 9 2 15
9 16 15 13 8 -4z"/>
<path d="M3278 1972 c3 -22 9 -28 25 -27 12 1 29 -8 39 -19 22 -27 23 -12 1
25 -17 28 -40 42 -28 17 3 -7 -2 -3 -11 10 -22 30 -31 28 -26 -6z"/>
<path d="M587 1954 c-15 -13 -24 -24 -20 -24 11 1 57 40 52 44 -2 3 -17 -7
-32 -20z"/>
<path d="M3600 1960 c6 -11 13 -20 16 -20 2 0 0 9 -6 20 -6 11 -13 20 -16 20
-2 0 0 -9 6 -20z"/>
<path d="M1551 1954 c0 -11 3 -14 6 -6 3 7 2 16 -1 19 -3 4 -6 -2 -5 -13z"/>
<path d="M1861 1952 c-14 -27 -12 -35 8 -23 7 5 11 17 9 27 -4 17 -5 17 -17
-4z"/>
<path d="M3675 1947 c16 -14 34 -23 40 -19 5 3 7 1 2 -3 -4 -5 1 -17 10 -29
16 -18 14 -17 -14 3 -32 22 -41 19 -24 -7 4 -8 12 -13 17 -12 5 0 25 -11 44
-26 l35 -27 -24 26 c-27 30 -19 36 13 10 12 -10 9 -4 -6 13 -16 16 -28 35 -28
40 0 6 -17 19 -37 29 -57 29 -61 29 -28 2z"/>
<path d="M640 1949 c-13 -7 -13 -9 -1 -9 11 0 10 -6 -5 -22 -29 -33 -47 -58
-42 -58 2 0 20 20 41 44 35 42 38 66 7 45z"/>
<path d="M4745 1940 c11 -12 36 -30 57 -42 20 -12 34 -26 31 -31 -3 -6 -1 -7
6 -3 6 4 18 2 26 -4 8 -7 20 -10 27 -7 7 2 -15 18 -49 36 -71 36 -85 50 -21
21 47 -21 62 -18 32 6 -18 14 -18 15 6 9 19 -5 22 -4 10 4 -8 6 -22 8 -31 6
-9 -3 -27 -1 -40 5 -24 10 -24 10 3 7 15 -2 25 0 22 4 -3 5 -26 9 -51 9 -46 0
-46 0 -28 -20z"/>
<path d="M305 1939 c-23 -6 -18 -7 20 -3 36 3 46 2 35 -5 -12 -9 -9 -11 14
-11 24 0 27 2 16 15 -13 16 -38 17 -85 4z"/>
<path d="M589 1923 l-24 -28 28 24 c25 23 32 31 24 31 -2 0 -14 -12 -28 -27z"/>
<path d="M1952 1930 c0 -14 2 -19 5 -12 2 6 2 18 0 25 -3 6 -5 1 -5 -13z"/>
<path d="M3658 1915 c2 -14 8 -25 12 -25 10 0 1 38 -10 45 -4 2 -5 -7 -2 -20z"/>
<path d="M1515 1919 c-4 -6 -5 -12 -2 -15 2 -3 7 2 10 11 7 17 1 20 -8 4z"/>
<path d="M1750 1910 c-13 -8 -12 -10 3 -10 9 0 17 5 17 10 0 12 -1 12 -20 0z"/>
<path d="M1759 1891 c-50 -24 -54 -29 -39 -39 15 -9 26 -6 59 19 23 16 41 34
41 39 0 13 4 14 -61 -19z m16 -11 c-3 -5 -16 -15 -28 -21 -21 -10 -21 -9 2 10
25 23 36 27 26 11z"/>
<path d="M1850 1901 c0 -6 4 -13 10 -16 6 -3 7 1 4 9 -7 18 -14 21 -14 7z"/>
<path d="M3372 1870 c0 -14 2 -19 5 -12 2 6 2 18 0 25 -3 6 -5 1 -5 -13z"/>
<path d="M1505 1861 c-11 -5 -24 -6 -29 -3 -5 3 -6 0 -2 -6 10 -16 31 -15 46
3 14 17 13 17 -15 6z"/>
<path d="M1705 1830 c-3 -5 -1 -10 4 -10 6 0 11 5 11 10 0 6 -2 10 -4 10 -3 0
-8 -4 -11 -10z"/>
<path d="M4865 1830 c3 -5 8 -10 11 -10 2 0 4 5 4 10 0 6 -5 10 -11 10 -5 0
-7 -4 -4 -10z"/>
<path d="M1446 1811 c-4 -5 3 -7 14 -4 23 6 26 13 6 13 -8 0 -17 -4 -20 -9z"/>
<path d="M1393 1783 c-31 -44 -35 -53 -25 -53 11 0 55 70 48 77 -2 2 -13 -8
-23 -24z"/>
<path d="M2425 1800 c3 -5 8 -10 11 -10 2 0 4 5 4 10 0 6 -5 10 -11 10 -5 0
-7 -4 -4 -10z"/>
<path d="M3280 1804 c0 -11 48 -64 57 -64 4 0 -6 15 -23 32 -16 18 -30 35 -31
37 -2 2 -3 0 -3 -5z"/>
<path d="M1405 1759 c-11 -17 -2 -18 19 -3 17 12 17 14 4 14 -9 0 -20 -5 -23
-11z"/>
<path d="M380 1670 c-6 -11 -7 -20 -2 -20 6 0 12 9 15 20 3 11 3 20 1 20 -2 0
-8 -9 -14 -20z"/>
<path d="M4820 1670 c0 -4 9 -19 20 -33 22 -27 26 -42 10 -32 -15 9 -12 -1 10
-45 11 -22 24 -40 29 -40 5 0 15 17 21 38 7 20 16 41 21 47 16 17 9 34 -21 50
-16 8 -33 15 -37 14 -4 -1 -10 0 -13 1 -18 7 -40 7 -40 0z m99 -65 c-3 -2 -16
10 -29 28 l-23 32 29 -27 c15 -15 26 -30 23 -33z m-9 -28 c0 -6 -9 -1 -20 11
-11 12 -20 24 -20 28 0 4 9 -1 20 -11 11 -10 20 -23 20 -28z"/>
<path d="M3880 1660 c0 -6 -5 -8 -11 -5 -6 4 -5 -2 3 -14 7 -12 21 -21 31 -21
14 0 16 4 7 19 -12 24 -30 36 -30 21z"/>
<path d="M322 1632 c-11 -25 -11 -25 4 -10 9 9 15 21 13 27 -2 6 -10 -2 -17
-17z"/>
<path d="M410 1650 c-8 -5 -12 -12 -9 -15 4 -3 12 1 19 10 14 17 11 19 -10 5z"/>
<path d="M1238 1637 c-14 -6 -29 -19 -31 -29 -3 -12 -1 -16 6 -11 7 4 2 -6
-11 -22 -12 -15 -20 -31 -16 -34 3 -3 11 1 18 11 6 9 23 18 36 20 14 1 24 8
23 13 -1 6 4 20 12 31 21 33 10 40 -37 21z m37 -7 c-3 -5 -16 -15 -28 -21 -22
-12 -22 -12 -3 10 19 21 43 30 31 11z"/>
<path d="M3431 1634 c0 -11 3 -14 6 -6 3 7 2 16 -1 19 -3 4 -6 -2 -5 -13z"/>
<path d="M3481 1636 c-14 -17 -1 -28 19 -16 11 7 12 12 4 20 -8 8 -14 7 -23
-4z"/>
<path d="M3601 1634 c0 -11 3 -14 6 -6 3 7 2 16 -1 19 -3 4 -6 -2 -5 -13z"/>
<path d="M3619 1619 c-4 -27 -1 -35 8 -32 9 4 11 0 7 -11 -3 -9 -1 -16 5 -16
6 0 11 -9 11 -20 0 -11 7 -20 15 -20 8 0 15 -6 15 -12 0 -15 70 -64 84 -60 5
2 13 -3 17 -10 6 -9 9 -6 9 9 0 12 8 26 18 32 16 9 16 11 -2 24 -18 13 -18 14
-1 20 15 6 13 11 -15 37 -48 45 -97 73 -97 55 0 -8 5 -11 10 -8 6 3 7 1 3 -6
-12 -18 -40 -8 -53 19 -7 15 -13 19 -13 10 -1 -10 -4 -8 -9 5 -7 16 -9 14 -12
-16z m138 -45 c-3 -3 -12 -4 -19 -1 -8 3 -5 6 6 6 11 1 17 -2 13 -5z"/>
<path d="M4792 1617 c2 -10 8 -18 13 -19 6 -1 15 -8 22 -17 7 -9 13 -11 13 -5
0 5 -7 19 -15 30 -8 10 -15 15 -15 9 0 -5 -5 -3 -11 5 -8 13 -10 12 -7 -3z"/>
<path d="M3496 1595 c-16 -13 -26 -30 -23 -37 4 -10 6 -10 6 0 1 6 7 12 14 12
6 0 23 9 36 19 18 14 20 19 9 24 -8 3 -27 -5 -42 -18z"/>
<path d="M1431 1594 c0 -11 3 -14 6 -6 3 7 2 16 -1 19 -3 4 -6 -2 -5 -13z"/>
<path d="M3426 1596 c3 -8 12 -12 21 -9 12 5 12 7 1 14 -20 13 -28 11 -22 -5z"/>
<path d="M3866 1599 c3 -5 13 -9 22 -9 9 0 30 -13 47 -30 l30 -29 2 26 c1 19
-1 22 -8 12 -7 -11 -9 -11 -9 4 0 9 -3 16 -7 15 -5 0 -15 1 -23 5 -31 11 -60
15 -54 6z"/>
<path d="M1322 1578 c-7 -7 -12 -23 -12 -35 0 -22 4 -24 45 -21 38 3 47 7 52
26 3 13 3 25 1 28 -11 10 -48 12 -54 2 -4 -7 -9 -7 -13 1 -5 8 -10 8 -19 -1z
m48 -38 c0 -5 -2 -10 -4 -10 -3 0 -8 5 -11 10 -3 6 -1 10 4 10 6 0 11 -4 11
-10z"/>
<path d="M435 1544 l-30 -26 33 22 c17 12 32 23 32 26 0 7 -4 5 -35 -22z"/>
<path d="M1459 1553 c-13 -16 -12 -17 4 -4 9 7 17 15 17 17 0 8 -8 3 -21 -13z"/>
<path d="M3489 1542 l-24 -27 24 20 c22 18 24 18 18 2 -5 -14 -3 -16 12 -8 10
6 23 17 31 25 10 13 10 16 -4 16 -11 0 -14 -4 -10 -12 6 -10 5 -10 -7 -1 -13
11 -20 8 -40 -15z"/>
<path d="M3575 1540 c-16 -17 -16 -20 -3 -15 9 4 19 13 22 21 7 19 2 18 -19
-6z"/>
<path d="M1430 1519 c0 -5 5 -7 10 -4 6 3 10 8 10 11 0 2 -4 4 -10 4 -5 0 -10
-5 -10 -11z"/>
<path d="M405 1494 l-30 -26 32 16 c17 9 35 20 38 26 11 18 -9 10 -40 -16z"/>
<path d="M3600 1491 c0 -5 5 -13 10 -16 6 -3 10 -2 10 4 0 5 -4 13 -10 16 -5
3 -10 2 -10 -4z"/>
<path d="M1800 1480 c-9 -6 -10 -10 -3 -10 6 0 15 5 18 10 8 12 4 12 -15 0z"/>
<path d="M520 1460 c-9 -6 -10 -10 -3 -10 6 0 15 5 18 10 8 12 4 12 -15 0z"/>
<path d="M3546 1453 c-6 -14 -5 -15 5 -6 7 7 10 15 7 18 -3 3 -9 -2 -12 -12z"/>
<path d="M3576 1433 c-6 -14 -5 -15 5 -6 7 7 10 15 7 18 -3 3 -9 -2 -12 -12z"/>
<path d="M4586 1427 c3 -10 9 -15 12 -12 3 3 0 11 -7 18 -10 9 -11 8 -5 -6z"/>
<path d="M4664 1405 c11 -8 22 -12 25 -9 6 6 -19 24 -34 24 -5 -1 -1 -7 9 -15z"/>
<path d="M4598 1365 c-4 -17 2 -31 18 -46 13 -13 24 -17 24 -11 0 7 -4 12 -10
12 -5 0 -10 16 -10 35 0 40 -15 47 -22 10z"/>
<path d="M1909 1353 c-13 -16 -12 -17 4 -4 9 7 17 15 17 17 0 8 -8 3 -21 -13z"/>
<path d="M4632 1350 c0 -14 2 -19 5 -12 2 6 2 18 0 25 -3 6 -5 1 -5 -13z"/>
<path d="M4462 1320 c0 -14 2 -19 5 -12 2 6 2 18 0 25 -3 6 -5 1 -5 -13z"/>
<path d="M4395 1319 c-4 -5 -4 -13 -1 -16 3 -4 6 0 7 8 0 8 4 6 9 -6 7 -16 9
-17 9 -3 1 21 -15 32 -24 17z"/>
<path d="M695 1297 c3 -14 10 -36 15 -49 8 -18 8 -14 4 17 -4 22 -10 44 -15
49 -5 5 -6 -2 -4 -17z"/>
<path d="M627 1303 c-4 -3 -7 -11 -7 -17 0 -6 5 -5 12 2 6 6 9 14 7 17 -3 3
-9 2 -12 -2z"/>
<path d="M772 1270 c-6 -11 -8 -21 -3 -25 5 -3 13 4 16 16 9 28 2 33 -13 9z"/>
<path d="M4389 1277 c0 -7 -2 -21 -4 -31 -2 -11 1 -27 6 -35 7 -12 8 -10 3 9
-6 23 -6 24 12 10 15 -11 16 -11 7 0 -15 17 -17 34 -3 25 6 -3 10 0 10 8 0 18
-30 31 -31 14z"/>
<path d="M4472 1270 c0 -14 2 -19 5 -12 2 6 2 18 0 25 -3 6 -5 1 -5 -13z"/>
<path d="M726 1224 c-3 -9 -6 -23 -6 -31 0 -13 3 -13 15 -3 17 14 20 36 6 44
-5 3 -12 -1 -15 -10z"/>
<path d="M807 1222 c-10 -10 -14 -22 -10 -25 3 -4 13 2 21 14 18 26 10 35 -11
11z"/>
<path d="M4309 1183 c0 -25 -1 -26 -9 -8 -6 13 -9 15 -9 5 0 -8 6 -26 14 -40
14 -24 14 -24 15 23 0 49 -9 67 -11 20z"/>
<path d="M3180 1196 c0 -2 7 -7 16 -10 8 -3 12 -2 9 4 -6 10 -25 14 -25 6z"/>
<path d="M700 1168 c0 -15 6 -25 14 -25 12 0 13 5 4 21 -16 31 -18 32 -18 4z"/>
<path d="M931 1134 c0 -11 3 -14 6 -6 3 7 2 16 -1 19 -3 4 -6 -2 -5 -13z"/>
<path d="M4080 1141 c0 -5 5 -13 10 -16 6 -3 10 -2 10 4 0 5 -4 13 -10 16 -5
3 -10 2 -10 -4z"/>
<path d="M913 1095 c0 -27 2 -38 4 -22 2 15 2 37 0 50 -2 12 -4 0 -4 -28z"/>
<path d="M893 1075 c0 -22 2 -30 4 -17 2 12 2 30 0 40 -3 9 -5 -1 -4 -23z"/>
<path d="M1040 1019 c0 -5 5 -7 10 -4 6 3 10 8 10 11 0 2 -4 4 -10 4 -5 0 -10
-5 -10 -11z"/>
<path d="M1094 1006 c-10 -8 -16 -17 -13 -20 3 -3 14 3 24 14 21 23 17 26 -11
6z"/>
<path d="M990 970 c0 -19 3 -21 12 -12 9 9 9 15 0 24 -9 9 -12 7 -12 -12z"/>
<path d="M3900 860 c20 -13 33 -13 25 0 -3 6 -14 10 -23 10 -15 0 -15 -2 -2
-10z"/>
<path d="M3820 790 c0 -6 -4 -8 -10 -5 -16 10 -11 -1 7 -16 9 -8 14 -9 10 -2
-4 6 -2 13 5 15 9 3 9 6 0 12 -7 4 -12 2 -12 -4z"/>
<path d="M1625 689 c-4 -6 -14 -8 -22 -5 -8 4 -11 1 -7 -5 3 -6 -5 -22 -17
-36 -13 -15 -17 -22 -9 -17 8 5 18 9 23 9 4 0 7 5 8 10 0 6 10 20 21 33 12 12
19 22 15 22 -3 0 -9 -5 -12 -11z"/>
<path d="M3592 620 c0 -14 2 -19 5 -12 2 6 2 18 0 25 -3 6 -5 1 -5 -13z"/>
<path d="M3641 624 c0 -11 3 -14 6 -6 3 7 2 16 -1 19 -3 4 -6 -2 -5 -13z"/>
<path d="M3527 570 c-3 -11 -1 -20 4 -20 5 0 9 9 9 20 0 11 -2 20 -4 20 -2 0
-6 -9 -9 -20z"/>
<path d="M3502 560 c0 -14 2 -19 5 -12 2 6 2 18 0 25 -3 6 -5 1 -5 -13z"/>
<path d="M3440 485 c0 -8 2 -15 4 -15 2 0 6 7 10 15 3 8 1 15 -4 15 -6 0 -10
-7 -10 -15z"/>
<path d="M2077 394 c-3 -6 -3 -20 0 -32 5 -21 6 -21 19 -5 7 10 13 25 14 33 0
12 -2 13 -9 1 -7 -11 -9 -11 -13 0 -3 8 -7 9 -11 3z"/>
<path d="M2160 379 c-7 -13 -9 -20 -4 -16 4 4 14 -3 21 -15 l12 -23 0 25 c1
14 -3 31 -8 39 -7 11 -11 9 -21 -10z"/>
<path d="M2885 80 c-4 -6 -11 -8 -16 -5 -5 4 -6 -2 -2 -11 5 -14 3 -16 -12
-11 -14 6 -16 5 -6 -6 6 -8 30 -14 56 -14 44 0 45 1 29 18 -10 11 -23 19 -31
19 -8 0 -11 5 -8 10 3 6 4 10 1 10 -3 0 -8 -5 -11 -10z"/>
</g>
</svg>
